<svg id="Capa_1" enable-background="new 0 0 512 512" height="512" viewBox="0 0 512 512" width="512" xmlns="http://www.w3.org/2000/svg"><g><path d="m135.489 292.611c-44.183 0-80 35.817-80 80v139.389h200.511l30-75-30-144.389-39.626 24.552-37.605-24.552z" fill="#ebe1dc"/><path d="m456.511 372.611c0-44.183-35.817-80-80-80h-43.306l-34.137 10-43.069-10v219.389h200.511v-139.389z" fill="#c8beb9"/><path d="m228.135 375.667-10.609 136.333h38.474l10-59.867-10-76.466z" fill="#e06a50"/><path d="m283.865 375.667h-27.865v136.333h38.474z" fill="#c53232"/><g><path d="m199.034 357.441 56.966 47.763 20-44.602-20-44.602z" fill="#ffb655"/><path d="m256 316v89.204l56.966-47.763z" fill="#e06a50"/></g><path d="m363.703 206.907h21.324c20.016 0 36.242-16.226 36.242-36.242 0-20.016-16.226-36.242-36.242-36.242h-21.324z" fill="#5b331c"/><path d="m148.297 206.907h-21.324c-20.016 0-36.242-16.226-36.242-36.242 0-20.016 16.226-36.242 36.242-36.242h21.324z" fill="#864927"/><path d="m178.493 292.104v78.057l77.507-40.767 20-19.276-20-18.014z" fill="#fff5f5"/><path d="m256 292.104v37.29l77.507 40.767v-78.057z" fill="#ebe1dc"/><g><path d="m176.505 0c-21.102 0-38.209 17.107-38.209 38.209v72.596h117.704l20-50.938-20-59.867z" fill="#464141"/><path d="m373.703 38.209c0-21.102-17.106-38.209-38.208-38.209h-79.495v110.805h117.703z" fill="#2d2d2d"/></g><path d="m185.51 75.482-9.005-2.885c-21.102 0-38.208 17.106-38.209 38.208v72.119c0 64.901 51.911 118.697 116.811 119.178.298.002.595-.005.893-.005l20-98.854-20-116.743c-23.784 0-47.567-3.672-70.49-11.018z" fill="#b35f30"/><path d="m335.495 72.597-9.005 2.885c-22.923 7.346-46.707 11.018-70.49 11.018v215.596c65.005-.001 117.703-52.69 117.703-117.695v-73.596c0-21.102-17.107-38.208-38.208-38.208z" fill="#864927"/><g><g><path d="m205.056 233.241-12.168-27.422 39.613-17.577h23.499l10 15.258-10 14.742h-17.142z" fill="#464141"/></g><g><path d="m306.944 233.241-33.802-14.999h-17.142v-30h23.499l39.613 17.577z" fill="#2d2d2d"/></g></g><g><g><path d="m279.771 130.045h45.132v30h-45.132z" fill="#5b331c"/></g><g><path d="m187.097 130.045h45.132v30h-45.132z" fill="#864927"/></g></g></g></svg>