<svg width="371" height="432" viewBox="0 0 371 432" fill="none" xmlns="http://www.w3.org/2000/svg">
<path d="M34.293 372.021C49.5589 363.171 71.1303 360.185 90.5999 362.839L21.3502 322.573C13.8278 318.148 13.8278 311.068 21.4608 306.643L180.094 215.048C187.727 210.623 200.006 210.623 207.639 215.048L261.844 246.575C285.296 236.176 318.815 237.283 340.165 249.672C361.515 262.062 363.174 281.532 345.143 295.028L365.165 306.643C372.688 311.068 372.688 318.148 365.055 322.573L206.422 414.168C198.789 418.593 186.51 418.593 178.877 414.168L134.407 388.283C139.053 399.566 133.743 412.067 118.477 420.916C95.1355 434.412 57.3025 434.412 34.0718 420.916C10.7304 407.42 10.9516 385.517 34.293 372.021Z" fill="#E1EBF6"/>
<path d="M273.459 270.912C274.123 277.882 280.65 282.528 286.513 285.072C292.929 287.838 300.009 288.944 306.978 288.833C314.058 288.723 321.359 287.395 327.775 284.187C333.417 281.421 339.28 276.443 339.28 269.585C339.28 274.563 338.948 278.656 335.408 282.528C330.762 287.506 323.903 290.161 317.376 291.488C304.655 294.143 287.398 292.816 277.774 283.081C273.902 279.098 273.349 275.005 273.349 269.806C273.459 270.249 273.459 270.58 273.459 270.912Z" fill="#ADCDFC"/>
<path d="M283.194 256.31C270.251 263.722 270.251 275.89 282.973 283.302C295.805 290.714 316.713 290.714 329.656 283.302C342.598 275.89 342.598 263.722 329.766 256.31C316.934 248.898 296.026 248.898 283.194 256.31Z" fill="#E2EDFF"/>
<path d="M300.451 241.265L300.562 270.027L305.65 273.014L305.54 244.141L300.451 241.265Z" fill="#C7D8F2"/>
<path d="M305.54 244.141L305.65 273.014L310.739 270.027L310.628 241.265L305.54 244.141Z" fill="#7BAEFF"/>
<path d="M300.452 241.265L305.54 244.141L310.629 241.265L305.54 238.279L300.452 241.265Z" fill="#4DA5DC"/>
<path d="M338.284 147.789C338.284 147.789 348.572 150.555 351.338 156.75C354.103 162.945 353.439 209.738 338.948 229.097C324.456 248.345 297.575 251.111 291.38 248.345C285.185 245.58 249.343 227.659 246.578 218.698C243.812 209.738 257.64 202.879 265.163 199.45C272.685 196.021 277.552 191.153 281.645 178.764C285.738 166.374 287.84 145.024 292.708 141.594C297.686 138.165 309.412 132.634 338.284 147.789Z" fill="#3AAEEF"/>
<path d="M276.557 135.399C276.557 135.399 293.482 121.35 296.911 121.018C301.004 120.686 306.204 122.124 307.531 127.987C308.858 133.85 305.761 138.275 302.664 140.045C299.566 141.705 272.242 154.647 267.486 154.647C262.618 154.647 259.631 150.444 262.729 145.355C265.826 140.156 276.557 135.399 276.557 135.399Z" fill="#E1E8F2"/>
<path d="M305.872 117.81C305.872 117.81 305.872 118.031 305.872 118.363C305.65 119.58 304.876 122.788 304.655 124.226C304.434 125.554 305.872 127.877 309.301 127.987C312.841 128.098 318.814 126.881 321.027 122.788C320.916 122.014 321.58 114.27 322.244 110.509L305.872 117.81Z" fill="#E16B40"/>
<path d="M298.349 92.2564C300.894 81.6366 309.633 75.9948 319.146 78.6498C319.146 78.6498 329.545 80.1985 333.638 89.6014C337.842 99.0043 330.651 106.305 326.005 110.952C324.124 112.832 322.576 114.27 321.691 115.266C321.359 115.598 321.027 115.93 320.695 116.261C320.584 116.372 320.584 116.372 320.584 116.372C317.487 119.248 313.947 120.686 311.403 121.35C307.199 122.346 302.221 121.461 299.677 118.474C297.243 115.487 295.805 102.876 298.349 92.2564Z" fill="#FF8654"/>
<path d="M320.253 118.585C320.253 118.585 336.957 131.749 338.395 135.952C339.943 140.156 339.722 151.661 335.74 159.072C331.757 166.484 331.757 194.693 330.209 200.113C328.66 205.534 313.726 206.53 304.655 204.317C295.584 202.105 281.203 194.472 284.079 184.184C288.393 169.028 287.287 153.652 286.955 148.785C286.623 143.917 287.84 131.859 290.495 123.894C291.048 122.235 297.022 119.801 297.022 119.801C297.022 119.801 303.217 117.036 320.253 118.585Z" fill="#0046A6"/>
<path d="M317.155 181.529C324.014 172.789 313.947 142.921 325.894 134.735C329.545 132.191 332.642 131.527 335.297 131.859C336.846 133.518 338.063 135.067 338.395 135.952C339.943 140.156 339.722 151.661 335.74 159.072C331.757 166.484 331.757 194.693 330.209 200.113C328.77 205.091 316.381 206.308 307.31 204.87L294.256 191.263C294.256 191.263 310.296 190.268 317.155 181.529Z" fill="#003783"/>
<path d="M320.806 120.908C306.314 119.58 299.677 122.124 298.017 122.788C297.796 125.664 297.686 129.536 298.239 133.076C299.345 139.935 302.11 158.741 302.11 158.741C302.11 158.741 311.071 143.253 316.934 136.948C321.027 132.412 325.12 128.209 327.222 126.107C323.682 123.12 320.806 120.908 320.806 120.908Z" fill="#E1E8F2"/>
<path d="M305.872 117.81C305.872 117.81 305.872 118.031 305.872 118.363C305.65 119.58 304.876 122.788 304.655 124.226C304.434 125.554 305.872 127.877 309.301 127.987C312.841 128.098 318.814 126.881 321.027 122.788C320.916 122.014 321.58 114.27 322.244 110.509L305.872 117.81Z" fill="#FF8654"/>
<path d="M298.349 92.2564C300.894 81.6366 309.633 75.9948 319.146 78.6498C319.146 78.6498 329.545 80.1985 333.638 89.6014C337.842 99.0043 330.651 106.305 326.005 110.952C324.124 112.832 322.576 114.27 321.691 115.266C321.359 115.598 321.027 115.93 320.695 116.261C320.584 116.372 320.584 116.372 320.584 116.372C317.487 119.248 313.947 120.686 311.403 121.35C307.199 122.346 302.221 121.461 299.677 118.474C297.243 115.487 295.805 102.876 298.349 92.2564Z" fill="#FF9F75"/>
<path d="M300.009 136.948L306.425 131.196L311.624 140.267L316.823 136.948C310.96 143.364 302 158.741 302 158.741C302 158.741 299.677 143.032 298.46 135.067L300.009 136.948Z" fill="#CFDAE4"/>
<path d="M300.451 148.01L303.327 137.833L302.885 134.404L306.425 131.196L308.969 135.62L306.093 138.275L305.319 153.32C303.327 156.528 302 158.741 302 158.741C302 158.741 301.336 153.763 300.451 148.01Z" fill="#00A5FF"/>
<path d="M334.855 88.6058C334.855 88.6058 338.948 96.1282 333.859 104.093C328.66 112.058 323.129 115.487 321.801 115.377C320.474 115.155 319.699 114.823 320.142 113.828C320.474 112.832 322.244 109.403 322.244 109.403C322.244 109.403 328.107 108.739 328.107 104.978C328.107 101.217 326.005 100.553 323.682 101.549C321.248 102.544 320.916 104.314 319.589 105.642C318.261 106.969 317.819 110.509 316.823 110.067C315.828 109.735 315.053 108.739 315.053 106.969C315.053 105.199 315.053 103.208 317.155 101.106C319.257 99.0044 316.823 95.5751 318.925 92.8095C321.027 90.0439 322.354 89.0483 322.354 89.0483C322.354 89.0483 321.027 91.1502 314.058 89.7121C307.199 88.3846 304.102 88.7165 301.336 86.9465C298.571 85.1765 299.234 81.4154 301.004 80.0879C302.774 78.7604 306.867 77.9861 311.735 76.3267C316.602 74.5567 319.257 75.663 325.12 76.9905C330.762 78.2073 336.293 84.4022 334.855 88.6058Z" fill="#E16B40"/>
<path d="M237.728 295.913C237.728 295.913 237.949 299.342 234.299 301.887C230.648 304.431 229.984 305.98 226.998 307.196C224.011 308.303 221.245 312.285 222.683 315.051C224.011 317.816 230.538 318.259 234.631 317.152C238.724 316.046 239.498 312.285 243.37 310.958C247.242 309.63 248.68 307.971 249.786 306.865C250.892 305.758 250.45 301.112 250.45 301.112L236.401 296.466" fill="#382747"/>
<path d="M219.807 282.638C219.807 282.638 220.028 286.067 216.378 288.612C212.727 291.156 212.064 292.705 209.077 293.922C206.09 295.028 203.324 299.01 204.763 301.776C206.201 304.541 212.617 304.984 216.71 303.878C220.803 302.771 221.577 299.01 225.449 297.683C229.321 296.355 230.759 294.696 231.865 293.59C232.971 292.484 232.529 287.837 232.529 287.837L218.48 283.191" fill="#382747"/>
<path d="M329.102 200.335C329.102 200.335 328.439 203.1 328.439 205.534C328.439 207.968 330.209 214.826 326.669 223.123C323.239 231.42 300.119 233.079 292.597 236.508C285.075 239.938 280.539 243.035 279.212 244.031C277.884 245.026 275.893 259.629 269.919 268.368C263.946 277.107 253.879 294.585 251.556 301.886C251.556 301.886 245.029 303.435 239.166 299.563C236.069 297.572 236.401 296.355 236.401 296.355C236.401 296.355 248.348 270.138 251.113 259.186C253.879 248.234 257.087 235.292 262.176 232.084C267.264 228.875 283.305 217.371 286.955 215.048C290.606 212.725 300.562 205.534 302.442 201.109C304.323 196.684 323.129 189.604 329.102 200.335Z" fill="#94A3C0"/>
<path d="M310.186 188.941C310.186 188.941 309.522 191.706 309.522 194.14C309.522 196.574 311.292 203.432 307.752 211.729C304.323 220.026 281.203 221.685 273.68 225.114C266.158 228.544 261.623 231.641 260.295 232.637C258.968 233.632 256.976 248.234 251.003 256.974C245.029 265.713 234.963 283.191 232.639 290.492C232.639 290.492 226.113 292.041 220.25 288.169C217.152 286.178 217.484 284.961 217.484 284.961C217.484 284.961 229.431 258.744 232.197 247.792C234.963 236.73 238.171 223.897 243.259 220.689C248.348 217.481 264.388 205.977 268.039 203.654C271.689 201.33 281.645 194.14 283.526 189.715C285.406 185.401 304.212 178.21 310.186 188.941Z" fill="#94A3C0"/>
<path d="M217.263 276.001L217.374 346.025L229.653 353.215L229.431 283.081L217.263 276.001Z" fill="#C7D8F2"/>
<path d="M229.431 283.081L229.653 353.215L242.042 346.025L241.821 276.001L229.431 283.081Z" fill="#7BAEFF"/>
<path d="M217.263 276.001L229.431 283.081L241.821 276.001L229.542 268.921L217.263 276.001Z" fill="#4DA5DC"/>
<path d="M15.7084 227.991C15.7084 228.212 15.7084 228.433 15.819 228.654C15.819 228.876 15.9296 228.986 15.9296 229.207C15.9296 229.429 16.0402 229.65 16.1509 229.761C16.2615 229.871 16.2615 230.092 16.3721 230.203C16.4827 230.424 16.5934 230.646 16.704 230.756C16.8146 230.867 16.9252 231.088 16.9252 231.199C17.0359 231.42 17.2571 231.641 17.3677 231.862C17.4783 232.084 17.6996 232.305 17.9208 232.526L18.0315 232.637C18.2527 232.858 18.5845 233.19 18.8058 233.411C19.027 233.632 19.2483 233.743 19.3589 233.854C19.5802 233.964 19.6908 234.185 19.912 234.296C20.1333 234.407 20.3545 234.628 20.5758 234.739C20.797 234.849 21.0183 235.07 21.3501 235.181L178.877 326.777C180.204 327.551 181.642 328.104 183.191 328.657C184.408 328.989 185.625 329.321 186.842 329.542C187.616 329.653 188.501 329.763 189.275 329.874C189.939 329.985 190.713 329.985 191.377 329.985C192.041 329.985 192.705 329.985 193.368 329.985C194.032 329.985 194.696 329.985 195.249 329.874V341.158C194.585 341.158 193.922 341.268 193.368 341.268C192.705 341.268 192.041 341.268 191.377 341.268C190.603 341.268 189.939 341.158 189.275 341.158C188.39 341.047 187.616 340.936 186.842 340.826C185.625 340.605 184.297 340.273 183.191 339.941C181.642 339.498 180.204 338.835 178.877 338.06L21.3501 246.465C21.2395 246.465 21.2395 246.354 21.1289 246.354C20.9076 246.243 20.797 246.133 20.6864 246.022C20.4651 245.912 20.2439 245.69 20.0227 245.58C19.8014 245.469 19.6908 245.248 19.4695 245.137C19.2483 245.027 19.0271 244.805 18.9164 244.695L18.8058 244.584C18.5845 244.363 18.3633 244.142 18.1421 243.92L18.0315 243.81C17.9208 243.699 17.8102 243.478 17.6996 243.367C17.6996 243.257 17.5889 243.257 17.5889 243.146C17.3677 242.925 17.2571 242.703 17.1465 242.482C17.0358 242.372 17.0359 242.261 16.9252 242.15C16.9252 242.15 16.9252 242.04 16.8146 242.04C16.704 241.818 16.5933 241.597 16.4827 241.487C16.4827 241.376 16.3721 241.265 16.3721 241.155V241.044C16.2615 240.823 16.2615 240.712 16.1509 240.491C16.1509 240.38 16.0402 240.27 16.0402 240.049V239.938C16.0402 239.717 16.0402 239.495 15.9296 239.274C15.9296 239.164 15.9296 239.053 15.9296 238.832C15.9296 238.721 15.9296 238.721 15.9296 238.61V227.327C15.7084 227.659 15.7084 227.88 15.7084 227.991Z" fill="#ADCDFC"/>
<path d="M197.24 329.874C197.904 329.763 198.568 329.653 199.121 329.542C199.785 329.431 200.448 329.21 201.112 329.1C201.886 328.878 202.661 328.657 203.435 328.325C204.431 327.883 205.316 327.44 206.201 326.998L364.944 235.402C368.816 233.19 370.697 230.314 370.697 227.437V238.721C370.697 241.597 368.816 244.473 364.944 246.686L206.311 338.281C205.426 338.834 204.541 339.277 203.546 339.609C202.771 339.941 201.997 340.162 201.223 340.383C200.559 340.604 199.895 340.715 199.231 340.826C198.568 340.936 197.904 341.047 197.351 341.157C196.687 341.268 196.134 341.268 195.47 341.379V330.095C196.023 330.095 196.576 329.985 197.24 329.874Z" fill="#ADCDFC"/>
<path d="M21.4603 219.915C13.8273 224.34 13.8273 231.42 21.3497 235.845L178.876 327.44C186.399 331.865 198.788 331.865 206.421 327.44L364.944 235.845C372.577 231.42 372.577 224.34 365.054 219.915L207.528 128.32C200.005 123.895 187.616 123.895 179.983 128.32L21.4603 219.915Z" fill="#E2EDFF"/>
<path d="M191.82 252.991L148.456 278.213L117.924 260.624L161.288 235.402L191.82 252.991Z" fill="white"/>
<path d="M154.982 246.796L161.841 250.779L170.47 248.234C168.036 245.469 162.173 244.363 157.416 245.801C156.421 246.022 155.757 246.354 154.982 246.796Z" fill="#FF5668"/>
<path d="M153.434 247.239C148.898 249.894 148.788 254.208 153.434 256.863C158.08 259.518 165.381 259.518 170.027 256.863C173.678 254.761 174.563 251.664 172.24 249.009L161.73 252.106L153.434 247.239Z" fill="#B391FF"/>
<path d="M159.628 266.155C159.96 266.377 159.96 266.709 159.628 266.93C159.297 267.151 158.633 267.151 158.301 266.93L138.942 255.757C138.61 255.536 138.61 255.204 138.942 254.983C139.274 254.761 139.938 254.761 140.27 254.983L159.628 266.155Z" fill="#ADCDFC"/>
<path d="M146.243 260.956C146.575 261.177 146.575 261.509 146.243 261.73C145.911 261.952 145.248 261.952 144.916 261.73L136.73 256.974C136.398 256.752 136.398 256.421 136.73 256.199C137.061 255.978 137.725 255.978 138.057 256.199L146.243 260.956Z" fill="#D4D9DF"/>
<path d="M148.787 264.938C149.119 265.16 149.23 265.491 148.787 265.713C148.345 265.934 147.792 265.934 147.46 265.713L134.628 258.301C134.296 258.08 134.296 257.748 134.628 257.527C134.96 257.305 135.623 257.305 135.955 257.527L148.787 264.938Z" fill="#D4D9DF"/>
<path d="M140.712 288.944C139.606 289.608 139.606 290.492 140.712 291.156L171.686 309.188C172.682 309.851 174.452 309.851 175.448 309.188L197.13 296.687C198.236 296.024 198.236 295.139 197.13 294.475L166.155 276.443C165.16 275.78 163.39 275.78 162.394 276.443L140.712 288.944Z" fill="#F2F8FD"/>
<path d="M139.938 290.161C139.938 290.271 139.938 290.271 139.938 290.271C139.938 290.271 139.938 290.271 139.938 290.382C139.938 290.382 139.938 290.382 139.938 290.492V290.603C139.938 290.603 139.938 290.603 139.938 290.714C139.938 290.714 139.938 290.824 140.048 290.824L140.159 290.935C140.159 290.935 140.159 290.935 140.269 291.045C140.269 291.045 140.269 291.045 140.38 291.156C140.38 291.156 140.491 291.156 140.491 291.267C140.491 291.267 140.601 291.267 140.601 291.377L171.576 309.409C171.686 309.519 171.797 309.519 171.908 309.63H172.018C172.129 309.63 172.239 309.63 172.239 309.741C172.35 309.741 172.461 309.741 172.461 309.851C172.571 309.851 172.682 309.851 172.793 309.962C172.793 309.962 172.793 309.962 172.903 309.962C173.014 309.962 173.235 309.962 173.346 309.962C173.346 309.962 173.346 309.962 173.456 309.962C173.567 309.962 173.788 309.962 173.899 309.962C173.899 309.962 173.899 309.962 174.009 309.962C174.12 309.962 174.341 309.962 174.452 309.851C174.452 309.851 174.452 309.851 174.562 309.851C174.673 309.851 174.784 309.741 174.894 309.741C174.894 309.741 174.894 309.741 175.005 309.741C175.116 309.63 175.337 309.63 175.447 309.519L197.13 297.019C197.572 296.798 197.793 296.466 197.904 296.245C197.904 296.134 197.904 296.024 197.904 295.913V297.13V297.24C197.793 297.572 197.572 297.904 197.13 298.236L175.447 310.736C175.337 310.847 175.226 310.847 175.005 310.958C175.005 310.958 175.005 310.958 174.894 310.958C174.784 310.958 174.784 311.068 174.673 311.068H174.562C174.562 311.068 174.563 311.068 174.452 311.068C174.452 311.068 174.452 311.068 174.341 311.068C174.231 311.068 174.12 311.068 174.12 311.068H174.009C174.009 311.068 174.009 311.068 173.899 311.068H173.788C173.678 311.068 173.567 311.068 173.567 311.068H173.456C173.456 311.068 173.456 311.068 173.346 311.068H173.235C173.124 311.068 173.014 311.068 172.903 311.068C172.903 311.068 172.903 311.068 172.793 311.068C172.682 311.068 172.682 311.068 172.571 311.068H172.461C172.35 311.068 172.239 311.068 172.239 310.958H172.129H172.018H171.908C171.797 310.958 171.686 310.847 171.576 310.736L140.601 292.705C140.601 292.705 140.601 292.705 140.491 292.705C140.491 292.705 140.38 292.705 140.38 292.594C140.38 292.594 140.38 292.594 140.269 292.484C140.269 292.484 140.159 292.484 140.159 292.373L140.048 292.262C140.048 292.262 140.048 292.152 139.938 292.152V292.041C139.938 292.041 139.938 292.041 139.938 291.93V291.82V290.161Z" fill="url(#paint0_linear)"/>
<path d="M143.92 289.386C143.588 289.607 143.588 289.939 143.92 290.05L173.346 307.196C173.678 307.418 174.231 307.418 174.563 307.196L194.032 295.913C194.364 295.692 194.364 295.36 194.032 295.249L164.607 278.103C164.275 277.881 163.722 277.881 163.39 278.103L143.92 289.386Z" fill="url(#paint1_linear)"/>
<path d="M288.283 186.95L244.919 212.171L214.387 194.472L257.751 169.25L288.283 186.95Z" fill="white"/>
<path d="M251.445 180.644L258.304 184.626L266.932 182.082C264.499 179.317 258.636 178.21 253.879 179.648C252.883 179.87 252.109 180.202 251.445 180.644Z" fill="#B391FF"/>
<path d="M249.786 181.197C245.25 183.852 245.14 188.166 249.786 190.821C254.432 193.476 261.733 193.476 266.379 190.821C270.03 188.72 270.915 185.622 268.592 182.967L258.083 186.065L249.786 181.197Z" fill="#05CCFF"/>
<path d="M256.091 200.003C256.423 200.224 256.423 200.556 256.091 200.777C255.76 200.999 255.096 200.999 254.764 200.777L235.405 189.604C235.073 189.383 235.073 189.051 235.405 188.83C235.737 188.609 236.401 188.609 236.732 188.83L256.091 200.003Z" fill="#ADCDFC"/>
<path d="M242.706 194.914C243.038 195.136 243.038 195.467 242.706 195.689C242.374 195.91 241.711 195.91 241.379 195.689L233.193 190.932C232.861 190.711 232.861 190.379 233.193 190.158C233.524 189.936 234.188 189.936 234.52 190.158L242.706 194.914Z" fill="#D4D9DF"/>
<path d="M245.25 198.786C245.582 199.007 245.693 199.339 245.25 199.561C244.919 199.782 244.255 199.782 243.923 199.561L231.091 192.149C230.759 191.928 230.759 191.596 231.091 191.374C231.423 191.153 232.086 191.153 232.418 191.374L245.25 198.786Z" fill="#05CCFF"/>
<path d="M218.48 264.717V267.262L224.453 270.801V268.147L218.48 264.717Z" fill="#540CC7"/>
<path d="M224.453 268.147V270.802L275.672 241.265V238.61L224.453 268.147Z" fill="#3F0995"/>
<path d="M218.48 264.717L224.453 268.146L275.672 238.61L269.587 235.181L218.48 264.717Z" fill="#7974F5"/>
<path d="M241.157 265.16V267.815L247.242 271.244V268.7L241.157 265.16Z" fill="#2689FD"/>
<path d="M247.242 268.7V271.244L287.398 248.124V245.469L247.242 268.7Z" fill="#3548DB"/>
<path d="M241.157 265.16L247.242 268.7L287.398 245.469L281.424 241.929L241.157 265.16Z" fill="#58AFFB"/>
<path d="M274.787 259.407V262.062L280.76 265.492V262.947L274.787 259.407Z" fill="#EE2C6A"/>
<path d="M280.76 262.947V265.492L299.124 254.872V252.327L280.76 262.947Z" fill="#EE428C"/>
<path d="M274.787 259.407L280.76 262.947L299.124 252.328L293.15 248.788L274.787 259.407Z" fill="#FF3D9D"/>
<path d="M315.385 245.026C315.938 245.358 315.938 245.911 315.385 246.243C314.832 246.575 313.837 246.575 313.283 246.243L282.752 228.654C282.198 228.322 282.198 227.769 282.752 227.437C283.305 227.106 284.3 227.106 284.853 227.437L315.385 245.026Z" fill="#ADCDFC"/>
<path d="M294.256 236.951C294.809 237.283 294.809 237.836 294.256 238.168C293.703 238.5 292.708 238.5 292.044 238.168L279.101 230.646C278.548 230.314 278.548 229.761 279.101 229.429C279.654 229.097 280.65 229.097 281.203 229.429L294.256 236.951Z" fill="#ADCDFC"/>
<path d="M298.239 243.035C298.792 243.367 298.902 243.92 298.239 244.252C297.686 244.584 296.69 244.584 296.026 244.252L275.782 232.526C275.229 232.194 275.229 231.641 275.782 231.309C276.335 230.977 277.331 230.977 277.884 231.309L298.239 243.035Z" fill="#ADCDFC"/>
<path d="M300.119 214.827L304.987 217.703C309.412 215.269 316.27 215.38 320.584 217.813C320.695 217.813 320.806 217.924 320.806 217.924L325.673 215.048C325.563 215.048 325.452 214.937 325.452 214.937C318.483 210.844 307.199 210.844 300.119 214.827Z" fill="#7CCCFF"/>
<path d="M299.345 215.269C293.593 218.92 292.929 224.23 297.575 228.212L302.664 225.336C300.672 223.013 301.225 220.136 304.212 218.145L299.345 215.269Z" fill="#7CCCFF"/>
<path d="M298.239 228.765C298.681 229.097 299.234 229.429 299.787 229.76C306.646 233.743 317.708 233.853 324.788 230.092L319.921 227.216C315.496 229.429 308.859 229.318 304.655 226.884C304.102 226.552 303.549 226.221 303.106 225.778L298.239 228.765Z" fill="#3EABFF"/>
<path d="M321.469 218.367C324.788 220.911 324.567 224.451 320.695 226.774L325.563 229.65C332.089 225.778 332.421 219.694 326.448 215.601L321.469 218.367Z" fill="#3EABFF"/>
<path d="M203.878 84.4022C201.665 85.7297 199.785 88.8271 199.895 91.3714V130.421C199.895 132.966 201.776 134.072 203.988 132.744L214.829 126.439L215.382 127.213L217.484 130.2L219.586 124.779L220.139 123.452L230.98 117.147C233.193 115.819 234.963 112.722 234.963 110.177V71.1275C234.963 68.5832 233.193 67.4769 230.869 68.8044L203.878 84.4022Z" fill="#58AFFB"/>
<path d="M222.794 84.8447V85.9509C222.794 86.6146 223.458 86.9465 224.011 86.7253L229.21 83.7385C229.431 83.6278 229.653 83.296 229.653 82.9641V81.8579C229.653 81.1941 228.989 80.8623 228.436 81.0835L223.237 84.0703C222.905 84.2916 222.794 84.5128 222.794 84.8447Z" fill="white"/>
<path d="M206.422 99.7789V100.885C206.422 101.549 207.086 101.881 207.639 101.659L229.21 89.1591C229.431 89.0485 229.653 88.7166 229.653 88.3848V87.2785C229.653 86.6148 228.989 86.2829 228.436 86.5042L206.864 99.0045C206.533 99.2258 206.422 99.447 206.422 99.7789Z" fill="#ADCDFC"/>
<path d="M154.54 165.378C141.597 172.79 141.597 184.958 154.319 192.37C167.151 199.782 188.059 199.782 201.001 192.37C213.944 184.958 213.944 172.79 201.112 165.378C188.39 157.966 167.483 157.966 154.54 165.378Z" fill="#ADCDFC"/>
<path d="M154.319 157.413V162.17L162.505 166.927V162.17L154.319 157.413Z" fill="#CC096A"/>
<path d="M187.284 165.489C187.174 165.489 187.174 165.489 187.063 165.378C186.62 165.157 186.178 165.046 185.625 164.936C185.293 164.825 184.961 164.714 184.629 164.604C184.408 164.493 184.076 164.493 183.855 164.382C183.523 164.272 183.191 164.272 182.749 164.161C182.527 164.161 182.196 164.051 181.974 164.051C181.864 164.051 181.753 164.051 181.642 164.051C181.2 163.94 180.757 163.94 180.315 163.829C180.204 163.829 180.094 163.829 179.872 163.829C179.319 163.719 178.766 163.719 178.324 163.719C178.213 163.719 178.103 163.719 177.992 163.719C177.66 163.719 177.328 163.719 176.886 163.719C176.554 163.719 176.222 163.719 175.779 163.719C175.448 163.719 175.226 163.719 174.894 163.719C174.563 163.719 174.231 163.719 173.899 163.719C173.567 163.719 173.346 163.719 173.014 163.829C172.682 163.829 172.35 163.94 172.018 163.94C171.686 163.94 171.465 164.051 171.133 164.051C170.801 164.051 170.47 164.161 170.138 164.272C169.806 164.382 169.363 164.382 169.031 164.493C168.921 164.493 168.81 164.493 168.81 164.604C168.257 164.714 167.815 164.825 167.372 165.046C167.262 165.046 167.151 165.157 166.93 165.157C166.487 165.267 166.155 165.378 165.713 165.599C165.602 165.599 165.492 165.71 165.381 165.71C165.049 165.821 164.717 166.042 164.385 166.152C164.164 166.263 164.053 166.263 163.832 166.374C163.39 166.595 162.837 166.816 162.394 167.148V161.617C162.837 161.396 163.39 161.064 163.832 160.843C163.943 160.732 164.164 160.732 164.385 160.621C164.717 160.511 164.938 160.4 165.27 160.289C165.27 160.289 165.381 160.289 165.381 160.179C165.492 160.179 165.602 160.068 165.713 160.068C166.155 159.958 166.487 159.736 166.93 159.626C167.04 159.626 167.151 159.515 167.372 159.515C167.483 159.515 167.593 159.404 167.704 159.404C168.146 159.294 168.478 159.183 168.921 159.073C169.031 159.073 169.142 159.073 169.142 158.962C169.363 158.962 169.585 158.851 169.695 158.851C169.806 158.851 170.027 158.851 170.138 158.741C170.47 158.63 170.801 158.63 171.133 158.519C171.244 158.519 171.355 158.519 171.576 158.409C171.686 158.409 171.908 158.409 172.018 158.409C172.35 158.409 172.682 158.298 173.014 158.298C173.124 158.298 173.346 158.298 173.456 158.298C173.567 158.298 173.788 158.298 173.899 158.298C174.231 158.298 174.563 158.298 174.894 158.298C175.116 158.298 175.226 158.298 175.448 158.298C175.558 158.298 175.669 158.298 175.89 158.298C176.222 158.298 176.554 158.298 176.996 158.298C177.218 158.298 177.328 158.298 177.549 158.298C177.771 158.298 177.881 158.298 178.103 158.298C178.213 158.298 178.324 158.298 178.434 158.298C178.877 158.298 179.319 158.409 179.762 158.409C179.872 158.409 179.983 158.409 179.983 158.409C180.094 158.409 180.204 158.409 180.426 158.409C180.868 158.409 181.311 158.519 181.753 158.63C181.864 158.63 181.974 158.63 182.085 158.63H182.196C182.417 158.63 182.638 158.741 182.859 158.741C183.191 158.851 183.634 158.851 183.966 158.962C184.187 159.073 184.519 159.073 184.74 159.183C185.072 159.294 185.404 159.404 185.735 159.515C185.846 159.515 185.846 159.515 185.957 159.626C186.399 159.736 186.731 159.847 187.174 160.068C187.284 160.068 187.284 160.068 187.395 160.179C187.837 160.4 188.28 160.511 188.612 160.732C188.722 160.843 188.833 160.843 188.944 160.953C189.386 161.174 189.829 161.396 190.271 161.617C190.382 161.617 190.382 161.728 190.492 161.728C190.603 161.728 190.603 161.838 190.714 161.838C190.824 161.949 190.935 161.949 191.045 162.059C191.156 162.17 191.267 162.17 191.377 162.281C191.488 162.391 191.598 162.391 191.709 162.502C191.82 162.613 191.93 162.613 192.041 162.723C192.152 162.834 192.262 162.834 192.373 162.944C192.483 163.055 192.594 163.055 192.594 163.166C192.705 163.276 192.815 163.276 192.926 163.387L193.037 163.497L193.147 163.608C193.258 163.719 193.479 163.94 193.59 164.051L193.7 164.161C193.922 164.382 194.032 164.604 194.253 164.714L194.364 164.825C194.475 164.936 194.585 165.046 194.585 165.157C194.585 165.267 194.696 165.267 194.696 165.378C194.807 165.489 194.807 165.599 194.917 165.71C194.917 165.71 194.917 165.821 195.028 165.821C195.028 165.821 195.028 165.931 195.138 165.931C195.138 166.042 195.249 166.152 195.249 166.263C195.249 166.374 195.36 166.374 195.36 166.484C195.36 166.595 195.47 166.706 195.47 166.816C195.47 166.816 195.47 166.927 195.581 166.927V167.037C195.581 167.148 195.692 167.259 195.692 167.369C195.692 167.48 195.692 167.591 195.802 167.591C195.802 167.701 195.802 167.812 195.913 167.922V168.033V168.144C195.913 168.254 195.913 168.365 195.913 168.476C195.913 168.586 195.913 168.697 195.913 168.697C195.913 168.807 195.913 168.918 195.913 169.029C195.913 169.139 195.913 169.139 195.913 169.25C195.913 169.36 195.913 170.135 195.913 170.245V175.002C195.913 174.892 195.913 174.781 195.913 174.67C195.913 174.56 195.913 174.449 195.913 174.339C195.913 174.228 195.913 174.117 195.913 174.117C195.913 174.007 195.913 173.896 195.913 173.785C195.913 173.675 195.913 173.564 195.913 173.564C195.913 173.454 195.913 173.343 195.802 173.232C195.802 173.122 195.802 173.011 195.692 173.011C195.692 172.9 195.581 172.79 195.581 172.679C195.581 172.569 195.47 172.458 195.47 172.458C195.47 172.347 195.36 172.237 195.36 172.126C195.36 172.015 195.249 172.015 195.249 171.905C195.249 171.794 195.138 171.684 195.138 171.573C195.138 171.462 195.028 171.462 195.028 171.352C194.917 171.241 194.917 171.13 194.807 171.02C194.807 170.909 194.696 170.909 194.696 170.799C194.585 170.688 194.475 170.577 194.475 170.467L194.364 170.356C194.253 170.135 194.032 169.914 193.811 169.803L193.7 169.692C193.59 169.582 193.368 169.36 193.258 169.25C193.147 169.139 193.147 169.139 193.037 169.029C192.926 168.918 192.815 168.918 192.705 168.807C192.594 168.697 192.483 168.697 192.483 168.586C192.373 168.476 192.262 168.475 192.152 168.365C192.041 168.254 191.93 168.254 191.82 168.144C191.709 168.033 191.598 168.033 191.488 167.922C191.377 167.812 191.267 167.812 191.156 167.701C191.045 167.591 190.935 167.591 190.824 167.48C190.713 167.369 190.492 167.259 190.382 167.148C189.939 166.927 189.497 166.706 189.054 166.484C188.944 166.374 188.833 166.374 188.722 166.263C188.169 165.821 187.727 165.71 187.284 165.489Z" fill="#CC096A"/>
<path d="M190.16 178.21V182.967L198.346 187.724V182.967L190.16 178.21Z" fill="#CC096A"/>
<path d="M198.346 182.967V187.724C204.541 184.184 207.639 179.538 207.528 174.781V170.024C207.528 174.781 204.431 179.427 198.346 182.967Z" fill="#CC096A"/>
<path d="M154.319 157.413L162.505 162.17C170.138 157.745 182.638 157.745 190.271 162.17C197.904 166.595 197.904 173.786 190.16 178.21L198.346 182.967C210.626 175.887 210.626 164.383 198.457 157.413C186.289 150.333 166.487 150.333 154.319 157.413Z" fill="#FF5668"/>
<path d="M162.505 163.608V166.927C158.633 169.139 156.752 172.126 156.752 175.002V170.246C156.642 167.369 158.633 165.821 162.505 163.608Z" fill="#3278CC"/>
<path d="M154.319 184.626L154.429 187.945L162.615 183.078V179.87L154.319 184.626Z" fill="#3278CC"/>
<path d="M145.026 170.799C145.026 170.909 145.026 171.131 145.026 171.241C145.026 171.352 145.026 171.462 145.026 171.684C145.026 171.794 145.026 172.015 145.137 172.126C145.137 172.237 145.137 172.347 145.248 172.569C145.248 172.679 145.358 172.9 145.358 173.011C145.358 173.122 145.469 173.232 145.469 173.454C145.469 173.564 145.579 173.785 145.579 173.896C145.579 174.007 145.69 174.117 145.69 174.339C145.801 174.449 145.801 174.67 145.911 174.781C146.022 174.892 146.022 175.002 146.133 175.224C146.243 175.334 146.243 175.555 146.354 175.666C146.464 175.777 146.464 175.887 146.575 175.998C146.686 176.219 146.796 176.33 146.907 176.551C147.018 176.662 147.018 176.772 147.128 176.883C147.239 177.104 147.46 177.325 147.571 177.436C147.681 177.547 147.681 177.657 147.792 177.657C148.013 177.989 148.345 178.321 148.566 178.653C148.677 178.763 148.677 178.763 148.787 178.874C149.009 179.095 149.23 179.317 149.451 179.538C149.562 179.648 149.672 179.759 149.783 179.87C149.894 179.98 150.115 180.091 150.226 180.312C150.336 180.423 150.557 180.533 150.668 180.644C150.779 180.755 151 180.865 151.111 180.976C151.221 181.087 151.442 181.197 151.553 181.308C151.774 181.418 151.885 181.529 152.106 181.64C152.217 181.75 152.438 181.861 152.659 181.972C152.881 182.082 152.991 182.193 153.212 182.303C153.434 182.414 153.655 182.635 153.987 182.746C154.097 182.746 154.097 182.857 154.208 182.857V187.613C154.097 187.613 154.097 187.503 153.987 187.503C153.876 187.392 153.765 187.392 153.655 187.281C153.544 187.171 153.434 187.171 153.323 187.06C153.102 186.95 152.991 186.839 152.77 186.728C152.549 186.618 152.438 186.507 152.327 186.396C152.106 186.286 151.996 186.175 151.774 186.065C151.664 185.954 151.442 185.843 151.332 185.733C151.111 185.622 151 185.511 150.889 185.401C150.779 185.29 150.557 185.18 150.447 185.069C150.336 184.958 150.115 184.848 150.004 184.626C149.894 184.626 149.894 184.516 149.783 184.516L149.672 184.405C149.451 184.184 149.23 183.963 149.009 183.741C148.898 183.631 148.898 183.631 148.787 183.52C148.456 183.188 148.234 182.857 148.013 182.525C147.903 182.414 147.903 182.414 147.903 182.303C147.792 182.082 147.571 181.861 147.46 181.75C147.349 181.64 147.349 181.529 147.239 181.418C147.128 181.197 147.018 181.087 146.907 180.865L146.796 180.755C146.796 180.644 146.686 180.644 146.686 180.533C146.575 180.423 146.575 180.202 146.464 180.091C146.354 179.98 146.354 179.87 146.243 179.648C146.133 179.538 146.133 179.317 146.022 179.206C146.022 179.095 145.911 179.095 145.911 178.985C145.911 178.874 145.911 178.874 145.801 178.763C145.801 178.653 145.69 178.432 145.69 178.321C145.69 178.21 145.579 178.1 145.579 177.878C145.579 177.768 145.469 177.547 145.469 177.436C145.469 177.325 145.469 177.325 145.358 177.215C145.358 177.104 145.358 177.104 145.358 176.994C145.358 176.883 145.358 176.662 145.248 176.551C145.248 176.44 145.248 176.33 145.248 176.109C145.248 175.998 145.248 175.777 145.248 175.666C145.248 175.555 145.248 175.445 145.248 175.334C145.248 175.224 145.248 175.113 145.248 175.113V170.356C145.026 170.467 145.026 170.688 145.026 170.799Z" fill="#3278CC"/>
<path d="M154.319 158.851C142.04 165.931 142.04 177.436 154.208 184.405C154.319 184.405 154.319 184.516 154.429 184.516L162.726 179.759C162.615 179.759 162.615 179.648 162.505 179.648C154.872 175.224 154.872 168.033 162.615 163.608L154.319 158.851Z" fill="#58AFFB"/>
<path d="M158.965 190.047C158.633 189.936 158.301 189.826 157.969 189.605C157.748 189.494 157.527 189.383 157.416 189.383C157.084 189.273 156.752 189.051 156.42 188.941C156.31 188.83 156.089 188.83 155.978 188.72C155.425 188.498 154.982 188.166 154.54 187.945V186.839C154.982 187.06 155.535 187.392 155.978 187.613C156.089 187.724 156.31 187.724 156.42 187.835C156.752 187.945 157.084 188.166 157.416 188.277C157.637 188.388 157.859 188.498 157.969 188.498C158.301 188.609 158.633 188.72 158.965 188.941C159.186 189.051 159.407 189.051 159.629 189.162C159.96 189.273 160.292 189.383 160.735 189.494C160.956 189.605 161.177 189.605 161.398 189.715C161.62 189.715 161.73 189.826 161.952 189.826C162.283 189.936 162.615 190.047 162.947 190.047C163.168 190.047 163.279 190.158 163.5 190.158C163.832 190.268 164.164 190.379 164.496 190.379C164.607 190.379 164.828 190.49 164.938 190.49C165.381 190.6 165.934 190.711 166.487 190.821V191.928C165.934 191.817 165.491 191.706 164.938 191.596C164.828 191.596 164.607 191.485 164.496 191.485C164.164 191.375 163.832 191.375 163.5 191.264C163.279 191.264 163.168 191.153 162.947 191.153C162.615 191.043 162.283 190.932 161.952 190.932C161.73 190.932 161.62 190.821 161.398 190.821C161.288 190.821 161.177 190.821 161.177 190.711C161.067 190.711 160.956 190.6 160.735 190.6C160.403 190.49 160.071 190.379 159.629 190.268C159.407 190.268 159.186 190.158 158.965 190.047Z" fill="#E2A029"/>
<path d="M154.319 186.839C157.858 188.83 161.952 190.268 166.266 191.043L170.138 184.626C167.372 184.073 164.828 183.188 162.615 181.971L154.319 186.839Z" fill="#FFBE3D"/>
<path d="M167.704 190.379C168.036 190.379 168.368 190.489 168.7 190.489C169.031 190.489 169.474 190.6 169.806 190.6C170.138 190.6 170.47 190.711 170.801 190.711C171.355 190.821 172.018 190.821 172.571 190.821H172.682C173.346 190.821 174.009 190.932 174.673 190.932C174.894 190.932 175.005 190.932 175.226 190.932C175.669 190.932 176.222 190.932 176.664 190.932C176.886 190.932 177.107 190.932 177.218 190.932C177.771 190.932 178.324 190.932 178.766 190.932C178.877 190.932 178.988 190.932 179.098 190.932C179.762 190.932 180.315 190.821 180.979 190.821C181.089 190.821 181.311 190.821 181.421 190.821C181.864 190.821 182.417 190.711 182.859 190.711C183.081 190.711 183.191 190.711 183.412 190.6C184.076 190.489 184.629 190.379 185.293 190.268C185.957 190.158 186.51 190.047 187.063 189.936C187.284 189.936 187.505 189.826 187.727 189.826C188.169 189.715 188.501 189.604 188.944 189.494C189.165 189.383 189.386 189.383 189.607 189.273C189.939 189.162 190.271 189.051 190.603 188.941C190.935 188.83 191.267 188.719 191.598 188.609C191.93 188.498 192.262 188.388 192.594 188.277C192.926 188.166 193.258 188.056 193.479 187.945C193.922 187.724 194.364 187.613 194.807 187.392C194.807 187.392 194.917 187.392 194.917 187.281C195.47 187.06 195.913 186.839 196.466 186.618C196.577 186.507 196.687 186.507 196.798 186.396C197.351 186.175 197.793 185.843 198.236 185.622V187.613C197.793 187.945 197.24 188.166 196.798 188.388C196.687 188.498 196.577 188.498 196.466 188.609C195.913 188.83 195.47 189.051 194.917 189.273H194.807C194.475 189.383 194.143 189.604 193.811 189.715C193.7 189.715 193.59 189.826 193.479 189.826C193.147 189.936 192.815 190.047 192.594 190.158C192.262 190.268 191.93 190.379 191.598 190.489C191.267 190.6 190.935 190.711 190.603 190.821C190.382 190.932 190.271 190.932 190.05 191.043C189.939 191.043 189.718 191.153 189.607 191.153C189.386 191.264 189.165 191.264 188.944 191.374C188.501 191.485 188.169 191.596 187.727 191.706C187.505 191.706 187.284 191.817 187.063 191.817C186.952 191.817 186.842 191.817 186.731 191.928C186.178 192.038 185.735 192.149 185.182 192.259C184.629 192.37 184.187 192.481 183.634 192.481C183.523 192.481 183.412 192.481 183.302 192.481C183.081 192.481 182.97 192.481 182.749 192.591C182.306 192.702 181.753 192.702 181.311 192.702C181.2 192.702 180.979 192.702 180.868 192.702C180.757 192.702 180.647 192.702 180.647 192.702C180.094 192.702 179.541 192.812 178.987 192.812C178.877 192.812 178.766 192.812 178.656 192.812C178.324 192.812 177.881 192.812 177.549 192.812C177.439 192.812 177.218 192.812 177.107 192.812C176.886 192.812 176.664 192.812 176.554 192.812C176.111 192.812 175.558 192.812 175.116 192.812C174.894 192.812 174.784 192.812 174.563 192.812C174.452 192.812 174.452 192.812 174.341 192.812C173.788 192.812 173.124 192.812 172.571 192.702H172.461C171.908 192.702 171.465 192.591 170.912 192.591C170.801 192.591 170.801 192.591 170.691 192.591C170.359 192.591 170.027 192.481 169.695 192.481C169.363 192.481 168.921 192.37 168.589 192.37C168.257 192.37 167.925 192.259 167.593 192.259C167.372 192.259 167.04 192.149 166.819 192.149C166.598 192.149 166.487 192.038 166.266 192.038V190.047C166.819 190.268 167.261 190.268 167.704 190.379Z" fill="#7974F5"/>
<path d="M170.138 183.741L166.266 190.158C177.107 192.259 189.607 190.821 198.236 185.733L190.05 180.976C184.74 184.073 176.996 185.069 170.138 183.741Z" fill="#B391FF"/>
<path d="M152.549 1.10315C152.659 1.10315 152.77 0.992525 152.77 0.992525C152.88 0.881902 152.991 0.881904 153.102 0.881904C153.212 0.881904 153.323 0.771283 153.434 0.771283C153.544 0.771283 153.655 0.660657 153.765 0.660657C153.876 0.660657 153.987 0.550036 154.097 0.550036C154.097 0.550036 154.097 0.550036 154.208 0.550036C154.319 0.550036 154.319 0.550034 154.429 0.439411C154.54 0.439411 154.65 0.32879 154.761 0.32879C154.872 0.32879 154.982 0.328792 155.093 0.218169C155.204 0.218169 155.314 0.218167 155.425 0.107544C155.535 0.107544 155.535 0.107544 155.646 0.107544H155.757C155.867 0.107544 155.978 0.107544 156.089 0.107544C156.199 0.107544 156.31 0.107544 156.531 0.107544C156.642 0.107544 156.863 0.107546 156.974 0.218169C157.195 0.218169 157.305 0.32879 157.527 0.32879C157.748 0.439413 157.969 0.550035 158.19 0.660657L163.39 3.64747C163.058 3.42623 162.615 3.3156 162.283 3.20498C161.841 3.09436 161.398 3.09436 160.956 3.09436C160.513 3.09436 159.96 3.20498 159.518 3.42622C158.965 3.64747 158.522 3.86872 157.969 4.20058L13.2747 87.7207L8.07541 84.7339L152.549 1.10315Z" fill="url(#paint2_linear)"/>
<path d="M-5.72205e-05 97.6769C-5.72205e-05 97.5663 -5.72205e-05 97.4557 -5.72205e-05 97.345C-5.72205e-05 97.2344 -5.72205e-05 97.1238 -5.72205e-05 97.0132C-5.72205e-05 96.9025 -5.72205e-05 96.7919 -5.72205e-05 96.6813C-5.72205e-05 96.5707 -5.05447e-05 96.4601 0.110573 96.2388C0.110573 96.1282 0.110579 96.0176 0.221202 95.9069C0.221202 95.7963 0.221209 95.6857 0.331831 95.4645C0.331831 95.3538 0.442427 95.2432 0.442427 95.022C0.442427 94.9113 0.553057 94.6901 0.553057 94.5795C0.553057 94.4688 0.663686 94.3582 0.663686 94.2476C0.663686 94.2476 0.663686 94.2476 0.663686 94.137C0.663686 94.0264 0.774315 93.9157 0.774315 93.6945C0.774315 93.5839 0.884945 93.4732 0.884945 93.252C0.884945 93.1414 0.995541 93.0307 0.995541 92.9201C0.995541 92.8095 1.10617 92.6989 1.10617 92.5883C1.10617 92.4776 1.2168 92.367 1.2168 92.2564C1.2168 92.2564 1.2168 92.2564 1.2168 92.1458C1.32742 92.0351 1.32744 91.9245 1.43806 91.8139C1.54868 91.7033 1.54866 91.5927 1.65928 91.3714C1.76991 91.2608 1.76992 91.0395 1.88054 90.9289C1.99117 90.7077 2.10177 90.5971 2.2124 90.4864V90.3758C2.2124 90.3758 2.2124 90.2652 2.32303 90.2652C2.54427 89.9333 2.65489 89.6014 2.87614 89.3802C2.98676 89.159 3.208 88.9377 3.31862 88.7165C3.42925 88.6058 3.53989 88.3846 3.65051 88.274C3.76113 88.1634 3.87174 88.0527 3.98237 87.9421C4.09299 87.8315 4.2036 87.7209 4.31422 87.6102C4.42484 87.4996 4.53549 87.389 4.64611 87.2784C4.64611 87.2784 4.64612 87.2784 4.75674 87.1677C4.86736 87.0571 4.86734 87.0571 4.97796 86.9465C5.08859 86.8359 5.19923 86.7253 5.30985 86.6146C5.42047 86.504 5.53108 86.3934 5.64171 86.2828C5.75233 86.1721 5.86294 86.0615 5.97356 85.9509C6.08418 85.9509 6.0842 85.8403 6.19482 85.8403L6.30545 85.7297C6.41607 85.619 6.52668 85.5084 6.6373 85.5084C6.74793 85.3978 6.85857 85.3978 6.96919 85.2872C7.07981 85.1765 7.19042 85.1765 7.30105 85.0659C7.41167 84.9553 7.52228 84.9553 7.6329 84.8447C7.6329 84.8447 7.63291 84.8447 7.74353 84.8447L12.9428 87.8315C12.3897 88.1634 11.8366 88.4952 11.3941 88.9377C10.9516 89.3802 10.3985 89.8227 9.95598 90.2652C9.071 91.2608 8.18604 92.367 7.52231 93.5839V93.6945C7.19044 94.2476 6.85855 94.9113 6.6373 95.4645C6.41606 96.1282 6.08418 96.7919 5.97356 97.345C5.75232 98.0088 5.6417 98.6725 5.53108 99.2256C5.42045 99.8894 5.42045 100.553 5.42045 101.106L5.75234 200.003C5.75234 200.556 5.86297 201.22 5.86297 201.662C5.97359 202.215 6.0842 202.658 6.30545 202.99C6.41607 203.322 6.63732 203.653 6.85856 203.875C6.96919 203.985 6.96916 204.096 7.07979 204.096C7.30103 204.317 7.63292 204.649 7.96479 204.76L2.76551 201.773C2.43364 201.552 2.21241 201.33 1.88054 201.109C1.76992 200.998 1.76991 200.888 1.65928 200.888C1.54866 200.777 1.43805 200.667 1.32743 200.556C1.21681 200.335 1.10616 200.224 0.995541 200.003C0.884917 199.892 0.884938 199.782 0.774315 199.56C0.774315 199.45 0.663686 199.339 0.663686 199.118C0.663686 199.007 0.553057 198.897 0.553057 198.675C0.553057 198.565 0.553057 198.565 0.553057 198.454V198.344C0.553057 198.233 0.55305 198.122 0.442427 198.012C0.442427 197.901 0.442427 197.79 0.442427 197.68C0.442427 197.569 0.442427 197.459 0.442427 197.348C0.442427 197.237 0.442427 197.127 0.442427 197.016L0.110573 98.1194C-5.05447e-05 98.0088 -5.72205e-05 97.8981 -5.72205e-05 97.6769Z" fill="url(#paint3_linear)"/>
<path d="M12.9428 87.6103C8.62851 90.1546 5.08858 96.1283 5.1992 101.106L5.53107 200.003C5.53107 204.981 9.071 206.972 13.3853 204.428L158.08 120.908C162.394 118.363 165.934 112.39 165.823 107.412L165.491 8.51507C165.491 3.53705 161.952 1.54584 157.637 4.09016L12.9428 87.6103Z" fill="#00CEB2"/>
<path d="M54.8688 47.0116C53.5413 47.786 52.4351 49.6666 52.4351 51.2153L52.5457 82.3003C52.5457 83.849 53.652 84.5127 54.9794 83.7384L100.445 57.5208C101.773 56.7464 102.879 54.8659 102.879 53.3171L102.768 22.2322C102.768 20.6834 101.662 20.0197 100.335 20.7941L54.8688 47.0116Z" fill="#2689FD"/>
<path d="M141.044 33.2945V34.7326C141.044 35.6176 141.929 36.0601 142.703 35.6176L149.341 31.7458C149.672 31.5245 149.894 31.1927 149.894 30.8608V29.4227C149.894 28.5377 149.009 28.0952 148.234 28.5377L141.597 32.4095C141.265 32.5201 141.044 32.852 141.044 33.2945Z" fill="white"/>
<path d="M119.915 52.4322V53.8703C119.915 54.7553 120.8 55.1978 121.574 54.7553L149.341 38.715C149.672 38.4938 149.894 38.1619 149.894 37.83V36.3919C149.894 35.507 149.009 35.0645 148.234 35.507L120.468 51.5473C120.136 51.6579 119.915 52.1004 119.915 52.4322Z" fill="#1AE5FF"/>
<path d="M153.765 98.6726L142.703 93.0308L135.513 104.646L127.437 112.832L119.362 107.965L102.215 102.434L94.4717 113.607L86.6175 119.912L79.5376 130.311L70.0241 110.177L58.2981 115.819L52.2139 110.73L39.6029 114.16L20.797 112.39" stroke="white" stroke-miterlimit="10"/>
<path d="M88.4981 35.0645C92.7018 32.6308 96.6842 33.2945 98.3435 37.0557C100.445 41.8125 98.0117 49.888 93.1443 55.4191L92.038 52.7642C95.3567 48.8924 96.9054 43.3612 95.4673 40.0425C94.3611 37.3876 91.4849 36.9451 88.6087 38.6044C87.8344 39.0469 87.1706 39.6 86.3963 40.2638L85.29 37.6088C86.2857 36.6132 87.3919 35.7283 88.4981 35.0645Z" fill="#F1F1F1"/>
<path d="M85.1794 37.6089L86.2856 40.2638C86.0644 40.4851 85.9538 40.5957 85.7325 40.8169C81.9714 44.6887 80.0908 50.773 81.5289 54.3129C81.6395 54.4235 81.6395 54.5342 81.7501 54.6448C81.7501 54.6448 81.7501 54.7554 81.8607 54.7554C82.967 56.636 85.0688 57.1891 87.3919 56.1935C87.7237 56.0829 88.1662 55.8616 88.4981 55.6404C88.6087 55.5298 88.7194 55.5298 88.83 55.4191C89.0512 55.3085 89.1618 55.1979 89.2725 55.0873H89.3831C89.715 54.866 89.9362 54.6448 90.2681 54.4235L90.3787 54.3129C90.4893 54.2023 90.5999 54.0917 90.7105 53.981L90.8212 53.8704C90.9318 53.7598 91.153 53.5386 91.2637 53.4279C91.4849 53.2067 91.7062 52.9854 91.9274 52.6536L93.0336 55.3085C92.8124 55.5298 92.5911 55.751 92.3699 56.0829C92.1486 56.3041 91.9274 56.5254 91.7061 56.636C91.5955 56.7466 91.5955 56.7466 91.4849 56.7466C91.3743 56.8572 91.1531 57.0785 91.0424 57.1891L90.9318 57.2997C90.4893 57.6316 90.0468 57.9635 89.6043 58.2953C89.6043 58.2953 89.4937 58.2953 89.4937 58.406C89.2724 58.5166 89.0512 58.6272 88.9406 58.7378H88.83C88.7194 58.8484 88.6087 58.8484 88.3875 58.9591C88.0556 59.1803 87.7237 59.2909 87.5025 59.4016C87.2813 59.5122 87.06 59.6228 86.8388 59.7334C83.2988 61.1715 80.0908 60.2865 78.6527 56.9679C76.5508 51.9898 79.0952 43.4719 84.5157 37.9408C84.8475 37.9408 85.0688 37.8301 85.1794 37.6089Z" fill="#FDB913"/>
<path d="M68.8073 52.3217V53.0961C68.8073 53.5386 69.3604 53.8704 69.6923 53.6492L73.564 51.4367C73.7853 51.3261 73.8959 51.1049 73.8959 50.8836V50.1093C73.8959 49.6668 73.3428 49.3349 73.0109 49.5561L69.1391 51.7686C68.9179 51.8792 68.8073 52.1005 68.8073 52.3217Z" fill="white"/>
<path d="M56.6388 63.384V64.1583C56.6388 64.6008 57.1919 64.9327 57.5238 64.7115L73.5641 55.4192C73.7853 55.3085 73.896 55.0873 73.896 54.866V54.0917C73.896 53.6492 73.3428 53.3173 73.011 53.5386L56.9707 62.8309C56.7494 62.9415 56.6388 63.1627 56.6388 63.384Z" fill="white"/>
<g opacity="0.53">
<path opacity="0.53" d="M63.2762 67.6982V68.4726C63.2762 68.9151 63.8293 69.2469 64.1611 69.0257L73.5641 63.6052C73.7853 63.4946 73.896 63.2733 73.896 63.0521V62.2777C73.896 61.8352 73.3428 61.5034 73.011 61.7246L63.608 67.1451C63.3868 67.2557 63.2762 67.477 63.2762 67.6982Z" fill="white"/>
</g>
<path d="M59.1831 66.0388V66.8131C59.1831 67.2556 59.7363 67.5875 60.0681 67.3662L73.5641 59.512C73.7853 59.4014 73.896 59.1802 73.896 58.9589V58.1846C73.896 57.7421 73.3428 57.4102 73.011 57.6315L59.515 65.4857C59.2938 65.5963 59.1831 65.8175 59.1831 66.0388Z" fill="#58AFFB"/>
<path d="M20.7971 102.213C25.4432 99.5577 29.315 101.659 29.315 107.08C29.315 112.39 25.5538 119.027 20.9077 121.682C16.2615 124.337 12.5004 122.235 12.3897 116.815C12.3897 111.394 16.1509 104.868 20.7971 102.213Z" fill="#FF4272"/>
<path d="M20.7971 107.522C22.8989 106.305 24.6689 107.301 24.6689 109.735C24.6689 112.168 23.0095 115.155 20.9077 116.372C18.8059 117.589 17.0359 116.593 17.0359 114.16C17.0359 111.726 18.6953 108.739 20.7971 107.522Z" fill="#212973"/>
<path d="M140.381 51.5472V52.9853C140.381 53.8703 141.266 54.4234 142.04 53.9809L148.899 49.9985C149.231 49.7772 149.452 49.4454 149.452 49.0029V47.5648C149.452 46.6798 148.567 46.1267 147.792 46.5692L140.934 50.5516C140.602 50.7728 140.381 51.1047 140.381 51.5472Z" fill="#1CE5FF"/>
<path d="M118.698 71.2381V72.6762C118.698 73.5612 119.583 74.1143 120.357 73.6718L149.009 57.2996C149.341 57.0784 149.562 56.7465 149.562 56.304V54.8659C149.562 53.981 148.677 53.4278 147.902 53.8703L119.251 70.2425C118.919 70.4637 118.698 70.7956 118.698 71.2381Z" fill="#1CE5FF"/>
<g opacity="0.53">
<path opacity="0.53" d="M130.424 78.9816V80.4197C130.424 81.3046 131.309 81.8578 132.083 81.4153L148.898 71.7911C149.23 71.5698 149.451 71.238 149.451 70.7955V69.3574C149.451 68.4724 148.566 67.9193 147.792 68.3618L130.977 77.986C130.645 78.2072 130.424 78.5391 130.424 78.9816Z" fill="#1CE5FF"/>
</g>
<path d="M123.123 75.9949V77.433C123.123 78.318 124.008 78.8711 124.782 78.4286L149.009 64.6008C149.341 64.3795 149.562 64.0477 149.562 63.6052V62.1671C149.562 61.2821 148.677 60.729 147.902 61.1715L123.676 74.9993C123.344 75.2206 123.123 75.5524 123.123 75.9949Z" fill="#1CE5FF"/>
<path d="M41.5941 174.781L37.7223 172.569V199.007L41.7047 201.33L41.5941 174.781Z" fill="#00A935"/>
<path d="M33.6292 174.117C33.6292 174.007 33.6292 174.007 33.6292 174.117C33.6292 174.007 33.6292 174.007 33.6292 174.117C33.6292 174.007 33.6292 174.007 33.6292 174.007L45.7977 149.78C45.7977 149.78 45.7977 149.78 45.7977 149.67C45.7977 149.67 45.7977 149.559 45.9083 149.559C45.9083 149.559 45.9083 149.559 46.019 149.559L49.8907 151.882C49.7801 151.882 49.7801 151.882 49.6695 151.882C49.5589 151.882 49.4483 151.882 49.4483 151.993C49.3376 152.103 49.227 152.103 49.1164 152.214C49.0058 152.325 48.8951 152.435 48.8951 152.546L36.7267 176.772C36.616 176.883 36.616 176.994 36.616 177.104C36.616 177.215 36.616 177.325 36.616 177.436C36.616 177.547 36.616 177.547 36.7267 177.657C36.7267 177.768 36.8373 177.768 36.8373 177.768L32.9655 175.445L32.8549 175.334C33.6292 174.228 33.6292 174.228 33.6292 174.117C33.6292 174.228 33.6292 174.117 33.6292 174.117Z" fill="#61E041"/>
<path d="M50.3333 150.997C50.112 151.108 49.8908 151.329 49.7801 151.55L37.6117 175.777C37.2798 176.551 37.6117 177.104 38.1648 176.772L41.5941 174.781L41.7047 201.33L59.515 191.043L59.4043 164.493L62.723 162.612C63.2761 162.281 63.608 161.285 63.2761 161.064L50.997 150.997C50.7758 150.886 50.5545 150.886 50.3333 150.997Z" fill="#00CC41"/>
<path d="M176.443 207.525L141.265 243.367L107.193 234.517L142.261 198.675L176.443 207.525Z" fill="white"/>
<path d="M138.721 209.738L142.04 211.065C144.584 209.074 148.898 208.41 151.885 209.517C151.996 209.517 151.996 209.517 152.106 209.627L154.872 207.304C154.761 207.304 154.761 207.304 154.651 207.193C149.894 205.313 142.814 206.419 138.721 209.738Z" fill="#E2EDFF"/>
<path d="M138.278 210.07C134.96 212.946 135.181 216.375 138.5 218.477L141.376 216.154C139.827 214.937 139.938 213.056 141.597 211.397L138.278 210.07Z" fill="#E2EDFF"/>
<path d="M138.942 218.698C139.274 218.919 139.606 219.03 140.048 219.141C144.805 220.911 151.774 219.804 155.867 216.707L152.549 215.379C150.004 217.26 145.801 217.924 142.814 216.818C142.371 216.707 142.04 216.486 141.708 216.264L138.942 218.698Z" fill="#3EABFF"/>
<path d="M152.659 209.738C154.982 210.955 155.204 213.278 153.102 215.158L156.42 216.486C160.182 213.388 159.628 209.406 155.425 207.525L152.659 209.738Z" fill="#3EABFF"/>
<path d="M142.15 384.964C142.15 384.964 144.916 386.845 142.371 391.38C139.827 395.805 137.504 393.15 131.641 397.575C125.778 402 123.676 402.885 120.579 402.553C117.481 402.221 115.601 400.672 115.048 398.902C114.494 397.133 116.043 394.256 116.043 394.256L142.15 384.964Z" fill="#94A3C0"/>
<path d="M117.371 385.075C117.371 385.075 116.154 390.938 115.49 395.363C115.269 397.464 118.034 400.23 122.017 400.119C125.999 399.898 128.212 398.792 129.539 397.022C130.867 395.252 139.495 391.933 141.044 390.606C142.593 389.278 142.924 385.075 142.261 384.079C141.597 383.084 138.942 381.314 136.287 382.53C133.522 383.747 131.309 385.96 125.778 386.292C120.357 386.623 117.371 385.075 117.371 385.075Z" fill="#382747"/>
<path d="M114.826 370.03C114.826 370.03 117.592 371.911 115.048 376.446C112.503 380.871 110.18 378.216 104.317 382.641C98.4542 387.066 96.3524 387.951 93.255 387.619C90.1575 387.287 88.2769 385.738 87.7238 383.968C87.1707 382.198 88.7194 379.322 88.7194 379.322L114.826 370.03Z" fill="#94A3C0"/>
<path d="M90.0468 370.141C90.0468 370.141 88.83 376.004 88.1663 380.429C87.945 382.53 90.7106 385.296 94.693 385.185C98.6754 384.964 100.888 383.858 102.215 382.088C103.543 380.318 112.171 376.999 113.72 375.672C115.269 374.344 115.601 370.141 114.937 369.145C114.273 368.149 111.618 366.379 108.963 367.596C106.198 368.813 103.985 371.026 98.4542 371.357C93.0337 371.689 90.0468 370.141 90.0468 370.141Z" fill="#382747"/>
<path d="M111.508 322.573C110.18 333.635 104.649 362.508 103.653 372.574C103.653 372.574 101.33 376.225 94.4717 375.34L91.153 374.012C89.8256 373.459 89.0512 372.132 89.2725 370.694C89.9362 365.163 91.4849 351.113 90.8212 342.817C89.9362 332.308 92.7018 325.781 92.7018 325.781C92.4805 322.352 92.038 310.404 98.8966 307.196C98.8966 307.196 115.711 304.099 111.508 322.573Z" fill="#14347C"/>
<path d="M97.4586 312.174L99.3392 315.825C99.3392 315.825 127.548 317.152 135.181 325.449C135.181 325.449 140.27 326.334 138.831 337.396C137.504 348.459 131.973 377.331 130.977 387.398C130.977 387.398 128.654 391.048 121.796 390.163L118.477 388.836C117.149 388.283 116.375 386.955 116.596 385.517C117.26 379.986 118.809 365.937 118.145 357.64C117.26 347.131 120.026 340.604 120.026 340.604C120.026 340.604 107.636 342.928 94.3612 348.459C81.0864 353.99 69.5817 347.574 64.493 344.808C59.4044 342.043 57.6344 340.162 57.6344 340.162C57.6344 340.162 51.2183 340.162 45.2447 335.073C39.271 329.985 38.3861 316.71 44.8022 308.856C51.1077 301.223 97.4586 312.174 97.4586 312.174Z" fill="#18388F"/>
<path d="M87.3918 242.371C87.3918 242.371 82.8563 240.712 83.0776 234.628C84.5157 228.654 86.175 228.212 86.175 228.212C86.175 228.212 79.7589 222.349 72.1259 224.119C72.1259 224.119 67.3691 233.743 61.9486 237.946C61.9486 237.946 66.2629 249.341 87.3918 242.371Z" fill="#CE7C56"/>
<path d="M77.4358 245.801C77.4358 245.801 60.5106 231.641 57.0813 231.309C52.9882 230.977 47.7889 232.305 46.3508 238.168C45.0234 244.031 48.1208 248.456 51.2183 250.226C54.3157 251.996 81.5289 265.049 86.3963 265.049C91.2637 265.049 94.3611 260.956 91.2637 255.757C88.0556 250.668 77.4358 245.801 77.4358 245.801Z" fill="#E2A029"/>
<path d="M72.2366 236.398C72.2366 236.398 90.1575 242.371 95.2461 250.668C100.335 258.965 99.3391 268.147 95.6886 280.979C92.038 293.811 99.3391 305.316 97.5692 312.174C95.6886 319.033 82.8563 325.449 64.0505 322.241C45.2446 319.033 43.8065 311.732 42.4791 307.528C41.1516 303.325 46.1296 283.634 41.5941 267.593C36.9479 251.553 46.2402 240.491 49.8908 237.725C53.5413 234.96 60.7318 231.42 72.2366 236.398Z" fill="#FFBE3D"/>
<path d="M49.6696 237.836C53.3201 235.07 60.7318 231.42 72.126 236.508C72.126 236.508 90.0469 242.482 95.1355 250.779C96.3523 252.77 97.2373 254.872 97.7904 256.974C90.4893 247.571 80.2014 243.367 73.5641 259.518C67.2586 274.563 83.1883 318.591 97.1267 304.763C97.6798 307.639 98.0117 310.183 97.4586 312.285C95.578 319.144 82.7458 325.56 63.9399 322.352C45.1341 319.144 43.696 311.842 42.3685 307.639C41.041 303.435 46.019 283.744 41.4835 267.704C36.8373 251.553 46.019 240.602 49.6696 237.836Z" fill="#E2A029"/>
<path d="M89.2725 244.252C89.2725 244.252 84.4051 247.349 72.3472 245.58C60.2893 243.81 59.6256 235.292 60.6212 234.517C61.6168 233.854 63.7186 231.088 63.7186 231.088C63.7186 231.088 76.4403 236.951 80.9758 238.61C85.4007 240.38 87.8344 241.376 87.8344 241.376L89.2725 244.252Z" fill="white"/>
<path d="M97.2373 206.751C97.2373 206.751 98.2329 219.141 91.7062 227.437C85.1794 235.734 78.6527 230.867 74.4491 228.765C70.356 226.663 68.5861 223.234 67.2586 213.278C65.9311 203.322 65.9311 193.697 73.1216 190.6C80.3121 187.503 88.2769 186.839 92.7018 194.361C97.2373 201.883 97.2373 206.751 97.2373 206.751Z" fill="#FFAA83"/>
<path d="M92.3699 191.927C92.3699 191.927 98.2329 196.352 97.901 202.99C97.5691 209.516 99.671 210.512 98.8966 214.052C98.2329 217.481 92.7017 218.477 92.3699 223.344C92.038 228.212 84.8475 229.871 80.9757 231.309C77.2146 232.637 71.0197 228.212 69.2497 225.778C67.4798 223.344 67.9222 217.149 65.8204 211.618C63.7186 206.087 64.8248 199.229 66.4842 194.361C68.2541 189.494 71.6834 188.498 71.6834 188.498C71.6834 188.498 73.4534 184.737 77.5464 184.073C81.7501 183.299 94.4717 183.963 92.3699 191.927Z" fill="#4D2C63"/>
<path d="M37.2798 395.584C37.9435 402.553 44.4702 407.199 50.3332 409.744C56.7494 412.509 63.8292 413.615 70.7984 413.505C77.8783 413.394 85.1794 412.067 91.5955 408.859C97.2373 406.093 103.1 401.115 103.1 394.256C103.1 399.234 102.768 403.328 99.2285 407.199C94.5823 412.177 87.7237 414.832 81.197 416.16C68.4754 418.815 51.2182 417.487 41.5941 407.752C37.7223 403.77 37.1692 399.677 37.1692 394.478C37.1692 394.92 37.1692 395.252 37.2798 395.584Z" fill="#ADCDFC"/>
<path d="M46.9026 380.982C33.9598 388.394 33.9598 400.562 46.6814 407.974C59.5136 415.385 80.4213 415.385 93.3642 407.974C106.307 400.562 106.307 388.394 93.4748 380.982C80.6426 373.57 59.8455 373.57 46.9026 380.982Z" fill="#E2EDFF"/>
<path d="M64.2717 365.937V394.699L69.3604 397.686L69.2497 368.813L64.2717 365.937Z" fill="#C7D8F2"/>
<path d="M69.2497 368.813L69.3604 397.686L74.449 394.699L74.3384 365.937L69.2497 368.813Z" fill="#7BAEFF"/>
<path d="M64.2723 365.937L69.2503 368.813L74.339 365.937L69.361 362.95L64.2723 365.937Z" fill="#4DA5DC"/>
<path d="M5.42097 267.483C5.53159 263.5 9.51402 260.735 13.2752 262.062C29.758 267.815 67.4803 281.532 69.914 286.399C72.2371 291.045 79.6488 316.821 83.41 329.763C84.5162 333.525 88.8305 335.184 92.1492 333.193L114.937 319.697C119.252 317.152 124.672 320.803 123.787 325.781L120.137 347.795C119.805 349.565 118.809 351.114 117.261 351.999L92.8129 366.048C79.2063 373.902 62.5023 374.344 48.4532 367.375L29.6474 357.972C13.1646 349.786 3.0979 332.64 3.76163 314.276L5.42097 267.483Z" fill="#3278CC"/>
<path d="M70.0241 286.51C72.3472 291.156 79.7589 316.931 83.5201 329.874C84.6263 333.635 88.9406 335.295 92.2592 333.303L115.048 319.807C119.362 317.263 124.782 320.914 123.897 325.892L120.247 347.906C120.136 348.459 120.026 348.901 119.804 349.344C119.472 349.786 119.251 350.229 118.919 350.671C118.477 351.224 117.924 351.667 117.371 351.999L92.923 366.048C87.7237 369.035 82.1926 370.915 76.4402 371.8C56.6387 356.424 59.1831 292.262 66.2629 286.953C67.3691 286.178 68.2541 285.625 69.1391 285.404C69.5816 285.736 69.8029 286.178 70.0241 286.51Z" fill="#3AAEEF"/>
<path d="M114.163 266.93C114.163 266.93 97.2373 252.77 93.808 252.438C89.715 252.106 84.5157 253.434 83.0776 259.297C81.7501 265.16 84.8476 269.585 87.945 271.355C91.0424 273.125 118.256 286.178 123.123 286.178C127.99 286.178 131.088 282.085 127.99 276.886C124.782 271.797 114.163 266.93 114.163 266.93Z" fill="#FFBE3D"/>
<path d="M137.836 244.584C137.836 244.584 138.721 242.814 138.831 241.708C139.053 240.491 138.278 238.942 139.053 236.177C139.716 233.411 140.933 230.977 141.486 229.097C142.814 227.327 144.031 230.424 143.035 233.079C142.04 235.624 142.371 237.172 143.367 237.394C144.363 237.615 148.677 234.96 149.894 233.632C151.111 232.305 157.969 225.557 158.633 226.442C159.297 227.327 159.297 228.212 156.863 230.756C154.429 233.3 153.544 234.517 153.434 235.181C153.212 235.845 153.434 236.509 152.549 238.61C151.664 240.712 152.327 242.04 150.779 243.92C149.23 245.801 146.354 246.133 144.916 247.35C143.588 248.566 143.588 248.566 143.588 248.566L137.836 244.584Z" fill="#FFAA83"/>
<path d="M123.123 286.289C123.123 286.289 130.314 287.616 134.296 279.651C138.168 271.576 144.805 250.005 145.801 248.013C145.801 248.013 143.478 242.925 137.725 243.146C137.725 243.146 131.309 255.757 127.659 261.509C123.897 267.262 110.844 283.966 123.123 286.289Z" fill="#FFBE3D"/>
<path d="M229.542 149.338C229.542 149.338 227.33 147.9 226.002 148.342C224.675 148.785 220.139 149.449 218.701 149.559C217.263 149.67 214.387 147.125 213.944 146.683C213.391 146.24 213.17 145.356 212.506 144.692C211.842 144.028 211.621 144.139 211.621 143.032C211.621 141.926 210.515 140.931 209.962 140.377C209.409 139.824 207.417 138.608 207.639 137.723C207.86 136.838 208.856 137.28 209.519 137.501C210.183 137.723 212.506 139.824 213.502 140.488C214.497 141.152 216.931 142.037 218.148 142.037C219.365 142.037 220.471 141.705 220.471 141.705C220.471 141.705 220.803 141.705 219.586 141.262C218.369 140.82 217.595 141.152 216.599 140.931C215.604 140.709 215.05 140.156 215.161 139.603C215.272 139.05 216.599 139.05 217.152 139.05C217.705 139.05 220.692 139.161 221.909 138.939C223.126 138.718 225.228 140.82 225.56 141.152C226.002 141.594 228.104 142.147 229.21 142.258C230.206 142.59 229.542 149.338 229.542 149.338Z" fill="#FF9F75"/>
<path d="M273.459 148.232C273.459 148.232 271.357 155.312 262.397 154.98C253.437 154.758 231.312 150.555 228.989 150.444C228.989 150.444 225.56 146.019 228.436 141.041C228.436 141.041 242.596 141.152 249.343 140.599C256.202 140.156 277.11 136.284 273.459 148.232Z" fill="#E1E8F2"/>
<path d="M320.695 162.391C320.695 162.391 324.456 140.709 326.779 138.165C329.656 135.178 334.523 132.966 339.39 136.506C344.258 140.046 344.811 145.466 343.483 148.785C342.267 152.103 329.987 179.648 326.226 182.857C322.465 186.065 317.487 184.848 316.491 178.874C315.606 173.011 320.695 162.391 320.695 162.391Z" fill="#E1E8F2"/>
<path d="M283.083 173.896C283.083 173.896 280.207 174.117 279.101 174.117C278.105 174.117 270.141 173.454 268.813 173.454C267.486 173.454 267.486 175.002 267.486 175.002C267.486 175.002 266.158 177.215 266.158 178.1C266.158 178.985 266.158 180.202 265.826 180.976C265.494 181.861 266.048 182.525 266.379 183.188C266.711 183.852 267.596 184.184 268.481 184.737C269.366 185.29 270.362 185.29 271.026 184.958C271.689 184.626 271.689 184.405 270.804 183.963C269.919 183.52 269.256 182.746 269.256 182.746C269.256 182.746 270.251 183.742 271.8 183.963C273.349 184.184 275.782 184.184 277.11 183.41C278.437 182.746 280.871 181.529 280.871 181.529L283.637 181.197L283.083 173.896Z" fill="#FF9F75"/>
<path d="M326.89 179.98C326.89 179.98 324.788 187.06 315.828 186.728C306.867 186.507 284.743 182.303 282.42 182.193C282.42 182.193 278.99 177.768 281.867 172.79C281.867 172.79 296.026 172.9 302.774 172.347C309.633 171.794 330.541 168.033 326.89 179.98Z" fill="#E1E8F2"/>
<defs>
<linearGradient id="paint0_linear" x1="177.903" y1="224.612" x2="170.638" y2="280.519" gradientUnits="userSpaceOnUse">
<stop stop-color="#C6E6FF"/>
<stop offset="1" stop-color="#8D9FFF"/>
</linearGradient>
<linearGradient id="paint1_linear" x1="182.443" y1="322.752" x2="161.716" y2="276.323" gradientUnits="userSpaceOnUse">
<stop stop-color="#1AE5FF"/>
<stop offset="1" stop-color="#EAEEEE"/>
</linearGradient>
<linearGradient id="paint2_linear" x1="62.9925" y1="211.508" x2="95.3884" y2="-29.2536" gradientUnits="userSpaceOnUse">
<stop stop-color="#1AE5FF"/>
<stop offset="0.2589" stop-color="#64E8F9"/>
<stop offset="0.7043" stop-color="#EAEEEE"/>
</linearGradient>
<linearGradient id="paint3_linear" x1="0.0194125" y1="144.778" x2="12.9873" y2="144.778" gradientUnits="userSpaceOnUse">
<stop stop-color="#5155D4"/>
<stop offset="1" stop-color="#45F7FF"/>
</linearGradient>
</defs>
</svg>
