<?xml version="1.0"?>
<svg xmlns="http://www.w3.org/2000/svg" xmlns:xlink="http://www.w3.org/1999/xlink" version="1.1" id="Capa_1" x="0px" y="0px" viewBox="0 0 445.6 445.6" style="enable-background:new 0 0 445.6 445.6;" xml:space="preserve" width="512px" height="512px"><g><g>
	<g>
		<g>
			<path d="M437.6,57.6c-0.4-0.4-0.4-0.4-0.8-0.8C431.6,51.6,424,48,416,48H29.6c-8,0-15.6,3.2-20.8,8.8C3.6,62,0,69.6,0,77.6V368     c0,8,3.2,15.6,8.8,20.8c5.2,5.2,12.8,8.8,20.8,8.8H416c8,0,15.6-3.2,20.8-8.8c5.2-5.2,8.8-12.8,8.8-20.8V77.6     C445.6,70,442.4,62.8,437.6,57.6z M424,368c0,2-0.8,4.4-2.4,5.6c-1.6,1.6-3.6,2.4-5.6,2.4H29.6c-2,0-4.4-0.8-5.6-2.4     c-1.6-1.6-2.4-3.6-2.4-5.6V77.6c0-2.4,0.8-4.4,2.4-5.6c1.6-1.6,3.6-2.4,5.6-2.4H416c2,0,4.4,0.8,5.6,2.4l0.4,0.4     c1.2,1.6,2,3.2,2,5.2V368z" data-original="#000000" class="active-path" data-old_color="#000000" fill="#E3E9ED"/>
			<path d="M378.4,112.4c-4.8-4.8-11.2-8-18.8-8H86c-7.2,0-14,2.8-18.8,7.6c-4.8,4.8-8,11.6-8,18.8V298v16.4c0,7.2,2.8,14,8,18.8     c4.8,4.8,11.6,8,18.8,8h170.4h103.2c7.2,0,14-2.8,18.8-8c4.8-4.8,8-11.6,8-18.8v-48V131.2C386.4,124,383.6,117.2,378.4,112.4z      M86,319.2v0.4c-1.2,0-2.8-0.4-3.6-1.6c-0.8-0.8-1.6-2-1.6-3.6v-12l66.4-66.8l56.4,56.8l26.8,26.8H86z M364.8,314.8     c0,1.2-0.4,2.8-1.6,3.6c-0.8,0.8-2.4,1.6-3.6,1.6h-98.8v-0.4l-6.4-6.4l-28-28l76.4-76.8l62,62.4V314.8z M364.8,240.4l-54.4-54.8     c-4-4-10.8-4.4-15.2,0l-84,84.4l-56.4-56.8c-4-4-10.8-4.4-15.2,0l-58.8,59.2V131.2c0-1.6,0.4-2.8,1.6-3.6     c0.8-0.8,2.4-1.6,3.6-1.6h273.6c1.2,0,2.8,0.4,3.6,1.6c0.8,0.8,1.6,2.4,1.6,3.6V240.4z" data-original="#000000" class="active-path" data-old_color="#000000" fill="#E3E9ED"/>
			<circle cx="209.6" cy="184.4" r="27.2" data-original="#000000" class="active-path" data-old_color="#000000" fill="#E3E9ED"/>
		</g>
	</g>
</g></g> </svg>
