<?xml version="1.0"?>
<svg xmlns="http://www.w3.org/2000/svg" id="Capa_1" enable-background="new 0 0 512 512" height="512px" viewBox="0 0 512 512" width="512px" class=""><g><g><g><path d="m382.464 303.435c-4.149 0-7.511 3.362-7.511 7.511v34.963c-8.911 3.114-15.324 11.6-15.324 21.56 0 12.591 10.244 22.835 22.835 22.835 9.962 0 18.45-6.415 21.562-15.33l18.406-.005c4.149-.001 7.51-3.365 7.509-7.513s-3.363-7.509-7.511-7.509c-.001 0-.002 0-.002 0l-18.406.005c-2.292-6.555-7.491-11.752-14.047-14.043v-34.963c.001-4.149-3.362-7.511-7.511-7.511zm0 71.847c-4.308 0-7.813-3.504-7.813-7.813 0-4.308 3.504-7.813 7.813-7.813s7.813 3.504 7.813 7.813c0 4.308-3.504 7.813-7.813 7.813z" data-original="#000000" class="active-path" data-old_color="#000000" fill="#FFFFFF"/><path d="m238.124 416.447h-207.857c-8.406 0-15.244-6.838-15.244-15.245v-263.661h422.899v90.029c0 4.149 3.363 7.511 7.511 7.511s7.511-3.363 7.511-7.511c0-16.399 0-126.834 0-143.567 0-16.689-13.578-30.266-30.267-30.266h-18.914v-8.249c0-16.813-13.678-30.491-30.491-30.491s-30.492 13.677-30.492 30.49v8.249h-36.883v-8.249c0-16.813-13.678-30.491-30.491-30.491-16.814 0-30.492 13.679-30.492 30.491v8.249h-36.884v-8.249c0-16.813-13.678-30.491-30.491-30.491s-30.491 13.679-30.491 30.491v8.249h-36.883v-8.249c0-16.813-13.678-30.491-30.492-30.491-16.813 0-30.491 13.679-30.491 30.491v8.249h-18.915c-16.689-.001-30.267 13.577-30.267 30.266v317.201c0 16.689 13.578 30.267 30.267 30.267h207.857c4.148 0 7.511-3.363 7.511-7.511s-3.362-7.512-7.511-7.512zm119.678-370.96c0-8.529 6.939-15.469 15.469-15.469s15.469 6.939 15.469 15.469v31.52c0 8.529-6.939 15.469-15.469 15.469s-15.469-6.939-15.469-15.469zm-82.397-15.469c8.529 0 15.469 6.939 15.469 15.469v31.52c0 8.529-6.939 15.469-15.469 15.469s-15.47-6.939-15.47-15.469v-15.741c0-.006.001-.013.001-.019 0-.007-.001-.013-.001-.019v-15.741c.001-8.53 6.941-15.469 15.47-15.469zm-113.335 15.469c0-8.529 6.939-15.469 15.469-15.469 8.529 0 15.469 6.939 15.469 15.469v31.52c0 8.529-6.939 15.469-15.469 15.469-8.529 0-15.469-6.939-15.469-15.469zm-97.867 0c0-8.529 6.939-15.469 15.469-15.469 8.529 0 15.469 6.939 15.469 15.469v15.75.01.01 15.75c0 8.529-6.939 15.469-15.469 15.469-8.529 0-15.469-6.939-15.469-15.469zm-49.18 38.515c0-8.405 6.838-15.244 15.244-15.244h18.914v8.249c0 16.813 13.678 30.491 30.492 30.491 16.813 0 30.491-13.679 30.491-30.491v-8.249h36.883v8.249c0 16.813 13.678 30.491 30.491 30.491s30.491-13.679 30.491-30.491v-8.249h36.883v8.249c0 16.813 13.678 30.491 30.492 30.491 16.813 0 30.491-13.679 30.491-30.491v-8.249h36.883v8.249c0 16.813 13.678 30.491 30.491 30.491s30.491-13.679 30.491-30.491v-8.249h18.914c8.406 0 15.245 6.838 15.245 15.244v38.516h-422.896z" data-original="#000000" class="active-path" data-old_color="#000000" fill="#FFFFFF"/><path d="m117.522 184.852c0-7.96-6.477-14.436-14.437-14.436h-48.568c-7.96 0-14.437 6.476-14.437 14.436v48.569c0 7.96 6.477 14.436 14.437 14.436h48.568c7.96 0 14.437-6.476 14.437-14.436zm-15.022 47.983h-47.397v-47.396h47.397z" data-original="#000000" class="active-path" data-old_color="#000000" fill="#FFFFFF"/><path d="m215.969 184.852c0-7.96-6.477-14.436-14.437-14.436h-48.568c-7.96 0-14.437 6.476-14.437 14.436v48.569c0 7.96 6.477 14.436 14.437 14.436h48.568c7.96 0 14.437-6.476 14.437-14.436zm-15.022 47.983h-47.397v-47.396h47.397z" data-original="#000000" class="active-path" data-old_color="#000000" fill="#FFFFFF"/><path d="m103.085 294.614h-48.568c-7.96 0-14.437 6.476-14.437 14.436v48.569c0 7.96 6.477 14.436 14.437 14.436h48.568c7.96 0 14.437-6.476 14.437-14.436v-48.569c0-7.96-6.476-14.436-14.437-14.436zm-.585 62.419h-47.397v-47.396h47.397z" data-original="#000000" class="active-path" data-old_color="#000000" fill="#FFFFFF"/><path d="m201.532 294.614h-48.568c-7.96 0-14.437 6.476-14.437 14.436v48.569c0 7.96 6.477 14.436 14.437 14.436h48.568c7.96 0 14.437-6.476 14.437-14.436v-48.569c0-7.96-6.476-14.436-14.437-14.436zm-.585 62.419h-47.397v-47.396h47.397z" data-original="#000000" class="active-path" data-old_color="#000000" fill="#FFFFFF"/><path d="m489.255 294.241 10.399-10.398c8.307-8.311 8.309-21.758-.001-30.07l-7.82-7.82c-8.309-8.309-21.761-8.312-30.07-.001l-11.307 11.307c-11.931-7.388-25.142-12.895-39.221-16.1v-13.23c8.977-2.65 15.549-10.963 15.549-20.787v-7.445c0-11.952-9.723-21.674-21.673-21.674h-45.292c-11.951 0-21.673 9.723-21.673 21.674v7.445c0 9.824 6.573 18.138 15.55 20.787v13.23c-14.079 3.205-27.29 8.713-39.221 16.1l-10.093-10.093c5.814-1.866 10.036-7.319 10.036-13.744v-48.569c0-7.96-6.477-14.436-14.437-14.436h-48.568c-7.96 0-14.437 6.476-14.437 14.436v48.569c0 7.96 6.477 14.436 14.437 14.436h19.781l-5.915 5.915c-8.312 8.31-8.311 21.76-.001 30.072l10.397 10.397c-14.338 20.844-22.744 46.071-22.744 73.227 0 71.426 58.109 129.536 129.536 129.536s129.533-58.11 129.533-129.536c0-27.156-8.407-52.383-22.745-73.228zm-16.869-37.666c2.442-2.444 6.38-2.443 8.822.001l7.821 7.821c2.44 2.438 2.449 6.376.001 8.824l-9.064 9.064c-5.176-5.916-10.879-11.358-17.038-16.254zm-119.219-56.878c0-3.668 2.983-6.652 6.651-6.652h45.292c3.668 0 6.651 2.984 6.651 6.652v7.445c0 3.668-2.983 6.651-6.651 6.651h-45.292c-3.668 0-6.651-2.983-6.651-6.651zm15.55 29.118h27.495v9.848c-4.519-.479-9.104-.73-13.747-.73s-9.229.251-13.747.73v-9.848zm-116.72-43.376h47.397v47.396h-47.397zm23.902 87.782c-2.441-2.439-2.451-6.374 0-8.825l7.82-7.82c2.439-2.441 6.376-2.449 8.825 0l9.456 9.455c-6.158 4.895-11.862 10.337-17.038 16.254zm106.565 208.761c-63.142 0-114.513-51.371-114.513-114.513s51.371-114.513 114.513-114.513 114.513 51.371 114.513 114.513-51.37 114.513-114.513 114.513z" data-original="#000000" class="active-path" data-old_color="#000000" fill="#FFFFFF"/><path d="m382.464 269.52c-46.739 0-87.165 33.244-96.125 79.045-.796 4.071 1.858 8.017 5.93 8.813 4.073.799 8.016-1.858 8.813-5.93 7.584-38.768 41.81-66.906 81.382-66.906 45.725 0 82.926 37.201 82.926 82.926s-37.201 82.926-82.926 82.926c-39.482 0-73.693-28.062-81.347-66.726-.806-4.07-4.756-6.715-8.827-5.91-4.07.806-6.715 4.757-5.91 8.827 9.042 45.678 49.451 78.832 96.084 78.832 54.009 0 97.949-43.939 97.949-97.949s-43.939-97.948-97.949-97.948z" data-original="#000000" class="active-path" data-old_color="#000000" fill="#FFFFFF"/></g></g></g> </svg>
