<svg xmlns="http://www.w3.org/2000/svg" width="64" height="62.889" viewBox="0 0 64 62.889">
  <path id="Caminho_7" data-name="Caminho 7" d="M23.776,50.293H40.615v5.76l3.135,6.839H42.4l-5.172-5.109H34.854l-1.9,5.109H31.1l-1.193-5.109H27.761l-5.193,5.109H20.641l3.13-6.839.005-5.76ZM.6,45.038,16.8,21.022V48.069H.052A4.5,4.5,0,0,1,.6,45.038ZM30.37.9c.9-1.328,2.469-1.167,3.5.359,13.615,20.193,9.667,23.354,9.667,46.812H20.693c0-23.552-3.99-26.9,9.677-47.172ZM47.427,21.361,63.151,44.678a5.356,5.356,0,0,1,.828,3.391H47.427V21.361Z" transform="translate(0 -0.003)" fill="#006fff" fill-rule="evenodd"/>
</svg>
