<svg xmlns="http://www.w3.org/2000/svg" width="56.545" height="46.643" viewBox="0 0 56.545 46.643">
  <path id="Caminho_13" data-name="Caminho 13" d="M5.816,35.556l.143-25.272H3.106V42.44a48.607,48.607,0,0,1,11.817-1.684,33.236,33.236,0,0,1,10.984,1.73A23.453,23.453,0,0,0,18.379,38.4,27.516,27.516,0,0,0,7.491,37.24a1.555,1.555,0,0,1-1.675-1.417,1.293,1.293,0,0,1,0-.267ZM47.682,8.963a1.868,1.868,0,0,1-.018-.235,1.345,1.345,0,0,1,.018-.235V3.377A23.743,23.743,0,0,0,37.163,4.656a14.5,14.5,0,0,0-7.317,5.724V39.527a37.109,37.109,0,0,1,8.09-4.187,23.268,23.268,0,0,1,9.746-1.39V8.963Zm3.106-1.785h4.206a1.551,1.551,0,0,1,1.551,1.551V44.465a1.551,1.551,0,0,1-1.551,1.551,1.509,1.509,0,0,1-.5-.083,48.162,48.162,0,0,0-12.88-2.089,29.894,29.894,0,0,0-12.461,2.54,1.564,1.564,0,0,1-.884.258,1.585,1.585,0,0,1-.884-.258,29.808,29.808,0,0,0-12.461-2.54,48.191,48.191,0,0,0-12.88,2.089,1.509,1.509,0,0,1-.5.083A1.543,1.543,0,0,1,0,44.469V8.728A1.551,1.551,0,0,1,1.551,7.178H5.973L6,2A1.549,1.549,0,0,1,7.234.487h0A24.6,24.6,0,0,1,20.625,1.513,17.2,17.2,0,0,1,28.351,7.15a18.059,18.059,0,0,1,7.722-5.393A27.2,27.2,0,0,1,49.458.468,1.548,1.548,0,0,1,50.784,2h0V7.178ZM31.351,42.251a33.388,33.388,0,0,1,10.275-1.5,48.384,48.384,0,0,1,11.817,1.684V10.284H50.788v25.41a1.551,1.551,0,0,1-1.551,1.551,1.533,1.533,0,0,1-.359-.041,19.864,19.864,0,0,0-9.9,1.054,34.681,34.681,0,0,0-7.63,3.994Zm-4.606-3.023V10.334a13.684,13.684,0,0,0-7.22-5.922A21.413,21.413,0,0,0,9.088,3.3L8.913,34.046a30,30,0,0,1,10.418,1.408,26.546,26.546,0,0,1,7.413,3.773Z" transform="translate(0 0.002)"/>
</svg>
