<svg xmlns="http://www.w3.org/2000/svg" width="59.451" height="59.451" viewBox="0 0 59.451 59.451">
  <path id="Caminho_12" data-name="Caminho 12" d="M16.637,32.892a3.409,3.409,0,0,1-.02-4.625l.164-.169a3.412,3.412,0,0,1,4.112-.46,3.325,3.325,0,0,1,.537.4l.016.015c.934.9,2.515,2.362,3.553,3.285l.891.8L36.791,20.7a3.413,3.413,0,0,1,2.359-1.027h.013a3.609,3.609,0,0,1,.649.05,3.414,3.414,0,0,1,1.229.471,3.385,3.385,0,0,1,.511.4l.078.071a3.443,3.443,0,0,1,.411.491,3.259,3.259,0,0,1,.315.57,3.351,3.351,0,0,1,.205.628,3.317,3.317,0,0,1,.08.658v.111a3.5,3.5,0,0,1-.055.583,3.359,3.359,0,0,1-.868,1.718L28.549,39.24a3.312,3.312,0,0,1-.494.434,3.42,3.42,0,0,1-1.2.542,3.5,3.5,0,0,1-.653.09h-.06a3.457,3.457,0,0,1-.6-.038l-.049-.01a3.516,3.516,0,0,1-.583-.15,3.441,3.441,0,0,1-.593-.278l-.03-.019a3.48,3.48,0,0,1-.5-.365l-.03-.029c-.764-.709-1.6-1.431-2.435-2.161C19.869,36,17.851,34.172,16.642,32.9l0,0ZM29.726,0A29.711,29.711,0,1,1,8.7,8.7,29.679,29.679,0,0,1,29.726,0ZM46.881,12.57a24.266,24.266,0,1,0,7.1,17.155,24.183,24.183,0,0,0-7.1-17.155Z" transform="translate(0 0)" fill="#47c64b"/>
</svg>
