<svg xmlns="http://www.w3.org/2000/svg" width="59.45" height="59.45" viewBox="0 0 59.45 59.45">
  <path id="Caminho_9" data-name="Caminho 9" d="M29.725,0A29.71,29.71,0,1,1,8.7,8.7,29.678,29.678,0,0,1,29.725,0Zm5.812,18.942a3.392,3.392,0,0,1,4.831-.013,3.475,3.475,0,0,1,.013,4.878l-5.837,5.92,5.843,5.927a3.445,3.445,0,0,1-.039,4.848,3.389,3.389,0,0,1-4.816-.006l-5.8-5.885-5.814,5.9a3.391,3.391,0,0,1-4.831.012,3.474,3.474,0,0,1-.013-4.878l5.836-5.92L19.063,23.8a3.446,3.446,0,0,1,.04-4.849,3.389,3.389,0,0,1,4.816.006l5.8,5.885,5.814-5.9Zm11.344-6.373a24.266,24.266,0,1,0,7.1,17.156,24.184,24.184,0,0,0-7.1-17.156Z" fill="#ff4141"/>
</svg>
