<?xml version="1.0" encoding="UTF-8" standalone="no"?>
<svg
   xmlns:dc="http://purl.org/dc/elements/1.1/"
   xmlns:cc="http://creativecommons.org/ns#"
   xmlns:rdf="http://www.w3.org/1999/02/22-rdf-syntax-ns#"
   xmlns:svg="http://www.w3.org/2000/svg"
   xmlns="http://www.w3.org/2000/svg"
   xmlns:sodipodi="http://sodipodi.sourceforge.net/DTD/sodipodi-0.dtd"
   xmlns:inkscape="http://www.inkscape.org/namespaces/inkscape"
   inkscape:version="1.0 (4035a4fb49, 2020-05-01)"
   sodipodi:docname="Complete.svg"
   id="svg3"
   version="1.1"
   viewBox="0 0 228.67 228.67004"
   height="228.67004"
   width="228.67">
  <metadata
     id="metadata9">
    <rdf:RDF>
      <cc:Work
         rdf:about="">
        <dc:format>image/svg+xml</dc:format>
        <dc:type
           rdf:resource="http://purl.org/dc/dcmitype/StillImage" />
      </cc:Work>
    </rdf:RDF>
  </metadata>
  <defs
     id="defs7" />
  <sodipodi:namedview
     inkscape:current-layer="svg3"
     inkscape:window-maximized="1"
     inkscape:window-y="-8"
     inkscape:window-x="-8"
     inkscape:cy="64.717997"
     inkscape:cx="122.24433"
     inkscape:zoom="3.4766247"
     showgrid="false"
     id="namedview5"
     inkscape:window-height="1017"
     inkscape:window-width="1920"
     inkscape:pageshadow="2"
     inkscape:pageopacity="0"
     guidetolerance="10"
     gridtolerance="10"
     objecttolerance="10"
     borderopacity="1"
     bordercolor="#666666"
     pagecolor="#ffffff" />
  <path
     style="stroke-width:0.935763"
     opacity="0.6"
     fill="#47c64b"
     d="m 64.025447,126.57461 a 13.118328,13.118328 0 0 1 -0.07861,-17.79883 l 0.632624,-0.65502 a 13.131412,13.131412 0 0 1 15.823577,-1.77049 12.797364,12.797364 0 0 1 2.065178,1.54207 l 0.06359,0.0586 c 3.595191,3.44828 9.677554,9.08805 13.671404,12.64199 l 3.427573,3.07405 41.948957,-44.003835 a 13.132375,13.132375 0 0 1 9.07674,-3.952617 h 0.0488 a 13.888452,13.888452 0 0 1 2.49689,0.187243 13.139841,13.139841 0 0 1 4.729,1.811629 13.02475,13.02475 0 0 1 1.96532,1.530902 l 0.3013,0.273339 a 13.248404,13.248404 0 0 1 1.58243,1.888349 12.539107,12.539107 0 0 1 1.21658,2.193403 12.894678,12.894678 0 0 1 0.7897,2.418903 12.764602,12.764602 0 0 1 0.30672,2.532173 v 0.428518 a 13.450506,13.450506 0 0 1 -0.21236,2.245895 12.92463,12.92463 0 0 1 -3.34147,6.611022 l -50.67766,53.174046 a 12.744015,12.744015 0 0 1 -1.90242,1.67228 13.160429,13.160429 0 0 1 -4.60011,2.08663 13.467367,13.467367 0 0 1 -2.51342,0.34808 l -0.23299,0.003 a 13.30547,13.30547 0 0 1 -2.310205,-0.14476 l -0.187128,-0.038 a 13.530983,13.530983 0 0 1 -2.245854,-0.57627 13.24278,13.24278 0 0 1 -2.282344,-1.07048 l -0.116985,-0.0745 a 13.393433,13.393433 0 0 1 -1.92127,-1.40289 l -0.117002,-0.11181 c -2.941696,-2.72789 -6.138219,-5.50525 -9.370315,-8.31353 -5.598541,-4.86579 -13.364409,-11.88399 -18.01878,-16.79377 l -0.01281,-0.004 z M 114.39146,5.1058468e-5 A 114.335,114.335 0 1 1 33.48718,33.488749 114.21054,114.21054 0 0 1 114.39146,5.1058468e-5 Z M 180.41352,48.372877 a 93.38069,93.38069 0 1 0 27.3388,66.017343 93.060649,93.060649 0 0 0 -27.3388,-66.017343 z"
     id="Done" />
</svg>
