<?xml version="1.0" encoding="UTF-8" standalone="no"?>
<svg
   xmlns:dc="http://purl.org/dc/elements/1.1/"
   xmlns:cc="http://creativecommons.org/ns#"
   xmlns:rdf="http://www.w3.org/1999/02/22-rdf-syntax-ns#"
   xmlns:svg="http://www.w3.org/2000/svg"
   xmlns="http://www.w3.org/2000/svg"
   xmlns:sodipodi="http://sodipodi.sourceforge.net/DTD/sodipodi-0.dtd"
   xmlns:inkscape="http://www.inkscape.org/namespaces/inkscape"
   inkscape:version="1.0 (4035a4fb49, 2020-05-01)"
   sodipodi:docname="ICON-User.svg"
   id="svg4"
   version="1.1"
   viewBox="0 0 24 24"
   height="24"
   width="24">
  <metadata
     id="metadata10">
    <rdf:RDF>
      <cc:Work
         rdf:about="">
        <dc:format>image/svg+xml</dc:format>
        <dc:type
           rdf:resource="http://purl.org/dc/dcmitype/StillImage" />
      </cc:Work>
    </rdf:RDF>
  </metadata>
  <defs
     id="defs8" />
  <sodipodi:namedview
     inkscape:current-layer="svg4"
     inkscape:window-maximized="1"
     inkscape:window-y="-8"
     inkscape:window-x="-8"
     inkscape:cy="14.605364"
     inkscape:cx="6.9970318"
     inkscape:zoom="17.708333"
     showgrid="false"
     id="namedview6"
     inkscape:window-height="1017"
     inkscape:window-width="1920"
     inkscape:pageshadow="2"
     inkscape:pageopacity="0"
     guidetolerance="10"
     gridtolerance="10"
     objecttolerance="10"
     borderopacity="1"
     bordercolor="#666666"
     pagecolor="#ffffff" />
  <path
     style="fill:#707070;fill-opacity:1"
     id="path2"
     d="M12 2c2.757 0 5 2.243 5 5.001 0 2.756-2.243 5-5 5s-5-2.244-5-5c0-2.758 2.243-5.001 5-5.001zm0-2c-3.866 0-7 3.134-7 7.001 0 3.865 3.134 7 7 7s7-3.135 7-7c0-3.867-3.134-7.001-7-7.001zm6.369 13.353c-.497.498-1.057.931-1.658 1.302 2.872 1.874 4.378 5.083 4.972 7.346h-19.387c.572-2.29 2.058-5.503 4.973-7.358-.603-.374-1.162-.811-1.658-1.312-4.258 3.072-5.611 8.506-5.611 10.669h24c0-2.142-1.44-7.557-5.631-10.647z" />
</svg>
