<?xml version="1.0" encoding="UTF-8" standalone="no"?>
<svg
   xmlns:dc="http://purl.org/dc/elements/1.1/"
   xmlns:cc="http://creativecommons.org/ns#"
   xmlns:rdf="http://www.w3.org/1999/02/22-rdf-syntax-ns#"
   xmlns:svg="http://www.w3.org/2000/svg"
   xmlns="http://www.w3.org/2000/svg"
   xmlns:sodipodi="http://sodipodi.sourceforge.net/DTD/sodipodi-0.dtd"
   xmlns:inkscape="http://www.inkscape.org/namespaces/inkscape"
   inkscape:version="1.0 (4035a4fb49, 2020-05-01)"
   height="24.00345"
   width="23.999996"
   sodipodi:docname="moon-black.svg"
   xml:space="preserve"
   viewBox="0 0 23.999997 24.003451"
   y="0px"
   x="0px"
   id="Layer_1"
   version="1.1"><metadata
     id="metadata11"><rdf:RDF><cc:Work
         rdf:about=""><dc:format>image/svg+xml</dc:format><dc:type
           rdf:resource="http://purl.org/dc/dcmitype/StillImage" /></cc:Work></rdf:RDF></metadata><defs
     id="defs9" /><sodipodi:namedview
     inkscape:current-layer="g4"
     inkscape:window-maximized="1"
     inkscape:window-y="-8"
     inkscape:window-x="-8"
     inkscape:cy="19.754583"
     inkscape:cx="16.494799"
     inkscape:zoom="4.8908843"
     showgrid="false"
     id="namedview7"
     inkscape:window-height="1017"
     inkscape:window-width="1920"
     inkscape:pageshadow="2"
     inkscape:pageopacity="0"
     guidetolerance="10"
     gridtolerance="10"
     objecttolerance="10"
     borderopacity="1"
     bordercolor="#666666"
     pagecolor="#ffffff" /><g
     transform="translate(0.00403794,0.00250582)"
     id="g4"><path
       style="stroke-width:0.195299"
       id="path2"
       d="m 9.5781413,0.24601386 c 0.4237997,-0.0878847 0.8475997,-0.15038057 1.2655407,-0.19139345 0.429658,-0.04101289 0.855411,-0.06054283 1.275305,-0.05663684 0.236312,0.0019529918 0.425753,0.19529944 0.4238,0.43161176 -0.002,0.18162848 -0.11718,0.33591504 -0.277325,0.39645787 -1.78699,0.703078 -3.2165822,2.0135372 -4.0934767,3.6364756 -0.8632235,1.5955964 -1.1913266,3.491954 -0.7987747,5.4058886 l 0.00195,0.013671 c 0.4472357,2.1600116 1.724494,3.9352836 3.4333644,5.0602086 1.706917,1.124925 3.84154,1.597549 6.001552,1.156173 l 0.01367,-0.002 c 1.554583,-0.322245 2.908008,-1.072194 3.964578,-2.105328 1.093677,-1.068288 1.867063,-2.437337 2.212743,-3.937237 0.05273,-0.2304534 0.283184,-0.373022 0.511684,-0.3202912 0.173817,0.041013 0.298809,0.1816285 0.326151,0.3476332 0.51559,3.163851 -0.263655,6.263253 -1.964713,8.731838 -1.693246,2.456867 -4.302447,4.290729 -7.456533,4.939123 C 11.171785,24.420179 7.9630149,23.709289 5.3987332,22.021902 2.8324986,20.328655 0.91270505,17.662818 0.24478096,14.416941 -0.40751918,11.247231 0.25454593,8.1126754 1.8579543,5.5796416 3.4691747,3.0387959 6.0275974,1.0994724 9.1582475,0.33975759 9.2187903,0.32413364 9.2890981,0.30850968 9.3652649,0.29093273 h 0.00195 v 0 l 0.2109234,-0.0449189 z" /></g></svg>
