<svg width="17" height="17" viewBox="0 0 17 17" fill="none" xmlns="http://www.w3.org/2000/svg">
<path d="M8.5 0C3.80802 0 0 3.80802 0 8.5C0 13.192 3.80802 17 8.5 17C13.192 17 17 13.192 17 8.5C17 3.80802 13.192 0 8.5 0ZM2.40266 8.5C2.40266 5.12267 5.14532 2.38 8.5 2.38C9.76934 2.38 10.9707 2.76535 11.9453 3.44533L3.46802 11.9454C2.788 10.9707 2.40266 9.76934 2.40266 8.5ZM8.5 14.5973C7.23066 14.5973 6.02931 14.212 5.05467 13.532L13.532 5.05467C14.212 6.02935 14.5973 7.23066 14.5973 8.5C14.5973 11.8773 11.8773 14.5973 8.5 14.5973Z" fill="#EDEEEF"/>
</svg>
